<svg width="107" height="39" viewBox="0 0 107 39" fill="none" xmlns="http://www.w3.org/2000/svg">
<g clip-path="url(#clip0_7_2261)">
<path d="M64.952 7.59644C64.9139 7.59676 64.876 7.5912 64.8396 7.57996C64.8754 7.59395 64.9138 7.59959 64.952 7.59644Z" fill="#333333"/>
<path d="M6.3954 0H0V32.2067H7.51284C11.4485 32.2067 14.2003 31.04 15.7683 28.7065C17.3363 26.373 18.1172 22.1213 18.1109 15.9514C18.1109 9.89624 17.3301 5.72386 15.7683 3.43432C14.2065 1.14477 11.0822 0 6.3954 0ZM10.6122 27.0882C10.0468 28.1639 9.0379 28.701 7.58546 28.6994H6.45163V3.53325H7.59015C9.05664 3.53325 10.0718 4.44326 10.6356 6.26327C11.1994 8.08329 11.4766 11.4218 11.4672 16.2789C11.4625 22.4079 11.1791 26.011 10.6168 27.0882H10.6122Z" fill="#333333"/>
<path d="M25.4084 0.0187988H19.355V5.64609H25.4084V0.0187988Z" fill="#333333"/>
<path d="M25.4084 7.53528H19.355V32.2068H25.4084V7.53528Z" fill="#333333"/>
<path d="M35.5425 18.2858C33.6184 16.5945 32.469 15.4333 32.0941 14.802C31.7317 14.2139 31.5379 13.5365 31.5343 12.8446C31.5191 12.6071 31.5545 12.3691 31.6381 12.1465C31.7218 11.924 31.8517 11.7219 32.0192 11.5538C32.3532 11.2497 32.7918 11.0884 33.242 11.1039C33.509 11.095 33.7739 11.1532 34.0128 11.2733C34.2517 11.3934 34.457 11.5716 34.6101 11.7917C34.958 12.3221 35.1302 12.9495 35.1021 13.5842H39.9209C39.9209 11.5428 39.3462 9.97245 38.1967 8.87321C37.0473 7.77398 35.3832 7.22437 33.2046 7.22437C31.1743 7.22437 29.5344 7.7622 28.285 8.83788C27.0356 9.91356 26.4109 11.3551 26.4109 13.1626C26.4109 14.9088 26.6569 16.3731 27.1488 17.5556C27.6408 18.738 28.8121 20.1317 30.6628 21.7366C32.1199 22.9929 33.1678 23.9665 33.8066 24.6574C34.4415 25.3429 34.7647 25.9812 34.7647 26.5677C34.7647 27.1959 34.6125 27.674 34.3079 28.0022C34.001 28.3202 33.5466 28.4733 32.9398 28.4733C32.6707 28.4924 32.401 28.4475 32.1523 28.3424C31.9037 28.2372 31.6831 28.0747 31.5085 27.868C31.1875 27.4581 31.0236 26.8103 31.0236 25.9223H26.1274C26.1274 28.0941 26.7123 29.7249 27.8821 30.8147C29.0518 31.9045 30.7948 32.4486 33.1108 32.447C35.2614 32.447 36.9536 31.8637 38.1873 30.6969C39.4196 29.5357 40.0357 27.9056 40.0357 25.821C40.0538 24.5345 39.7165 23.2681 39.0611 22.1629C38.4115 21.0684 37.2386 19.776 35.5425 18.2858Z" fill="#333333"/>
<path d="M106.021 22.1535C105.366 21.0653 104.195 19.776 102.507 18.2858C100.586 16.5945 99.4388 15.4333 99.0655 14.802C98.7031 14.2139 98.5093 13.5365 98.5056 12.8446C98.49 12.6073 98.525 12.3694 98.6082 12.1468C98.6915 11.9241 98.821 11.722 98.9882 11.5538C99.323 11.2496 99.7624 11.0882 100.213 11.1039C100.48 11.0947 100.745 11.1529 100.983 11.273C101.222 11.3932 101.427 11.5715 101.579 11.7917C101.928 12.3216 102.1 12.9494 102.071 13.5842H106.892C106.892 11.5428 106.317 9.97245 105.166 8.87321C104.015 7.77398 102.351 7.22437 100.176 7.22437C98.1363 7.22437 96.4964 7.7622 95.2564 8.83788C94.0164 9.91356 93.3917 11.3551 93.3823 13.1626C93.3823 14.9088 93.6298 16.3731 94.1249 17.5556C94.62 18.738 95.7913 20.1317 97.6389 21.7366C99.0929 22.9929 100.139 23.9665 100.778 24.6574C101.417 25.3484 101.737 25.9851 101.738 26.5677C101.738 27.1959 101.582 27.674 101.27 28.0022C100.968 28.3202 100.511 28.4733 99.9018 28.4733C99.6331 28.4922 99.3638 28.4472 99.1155 28.3421C98.8673 28.2369 98.6471 28.0745 98.4728 27.868C98.1472 27.4581 97.9879 26.8103 97.9879 25.9223H93.0918C93.0918 28.0941 93.6767 29.7249 94.8464 30.8147C96.0162 31.9045 97.7591 32.4486 100.075 32.447C102.224 32.447 103.916 31.8637 105.149 30.6969C106.384 29.5357 107.002 27.9056 107.002 25.821C107.019 24.5308 106.679 23.2612 106.021 22.1535Z" fill="#333333"/>
<path d="M61.3772 20.3491C61.3766 19.8735 61.4692 19.4024 61.6497 18.9627C61.8302 18.5231 62.0952 18.1235 62.4293 17.7869C62.7635 17.4502 63.1603 17.1831 63.5972 17.0007C64.0341 16.8183 64.5025 16.7243 64.9755 16.724C65.4484 16.7237 65.9168 16.8171 66.3538 16.999C66.7908 17.1808 67.1878 17.4475 67.5222 17.7837C67.8566 18.1199 68.1218 18.5192 68.3027 18.9586C68.4835 19.398 68.5764 19.8689 68.5761 20.3444C68.5761 21.3046 68.1968 22.2255 67.5215 22.9044C66.8463 23.5834 65.9304 23.9648 64.9755 23.9648C64.0218 23.9642 63.1072 23.5831 62.4326 22.9052C61.758 22.2274 61.3784 21.3081 61.3772 20.3491ZM61.5342 20.3491C61.5354 21.2671 61.8986 22.1471 62.5442 22.7961C63.1897 23.4452 64.0649 23.8104 64.9778 23.8117C65.8912 23.8117 66.7671 23.4469 67.4129 22.7975C68.0587 22.1482 68.4215 21.2674 68.4215 20.3491C68.4209 19.431 68.0579 18.5506 67.4122 17.9014C66.7665 17.2522 65.891 16.8872 64.9778 16.8865C64.0645 16.8865 63.1886 17.2513 62.5428 17.9007C61.897 18.5501 61.5342 19.4308 61.5342 20.3491Z" fill="#333333"/>
<path d="M65.5447 20.3491C65.5465 20.4627 65.5147 20.5743 65.4533 20.6696C65.3919 20.765 65.3037 20.8398 65.1998 20.8846C65.096 20.9294 64.9813 20.9421 64.8702 20.921C64.7592 20.9 64.6569 20.8463 64.5763 20.7666C64.4958 20.6869 64.4406 20.585 64.4179 20.4737C64.3952 20.3624 64.4059 20.2469 64.4487 20.1417C64.4915 20.0366 64.5644 19.9466 64.6582 19.8833C64.752 19.82 64.8624 19.7862 64.9754 19.7861C65.125 19.7855 65.2687 19.8443 65.3753 19.9498C65.482 20.0552 65.5428 20.1987 65.5447 20.3491Z" fill="#333333"/>
<path d="M52.7093 26.0636H50.4416C50.3526 27.1251 50.1785 27.8169 49.9192 28.1388C49.771 28.3037 49.587 28.4321 49.3814 28.5138C49.1758 28.5955 48.9542 28.6284 48.7339 28.6099C47.8733 28.6099 47.3173 28.0972 47.0659 27.0717C46.8145 26.0463 46.6887 23.6264 46.6887 19.8121C46.6887 16.4924 46.7996 14.1981 47.0214 12.9293C47.2432 11.6605 47.7898 11.0261 48.6612 11.0261C48.891 11.012 49.1196 11.0673 49.3179 11.1848C49.5161 11.3023 49.675 11.4767 49.774 11.6856C49.9942 12.1253 50.1043 13.095 50.1043 14.5947H52.7468C53.3177 13.3769 54.0653 12.2513 54.9653 11.2546C54.7075 10.4299 54.2688 9.67404 53.6815 9.04275C52.5117 7.8226 50.8329 7.21252 48.6448 7.21252C45.8961 7.21252 43.8401 8.27093 42.4767 10.3877C41.1133 12.5045 40.4308 15.6452 40.4292 19.8097C40.4292 23.9947 41.0875 27.1455 42.404 29.2623C43.7206 31.3792 45.6494 32.4391 48.1904 32.4423C50.4409 32.4423 52.1291 31.9233 53.2551 30.8853C53.8221 30.3491 54.2493 29.6809 54.4991 28.9396C53.7844 28.0606 53.1831 27.0942 52.7093 26.0636Z" fill="#333333"/>
<path d="M78.4432 20.368C78.446 22.6764 77.8605 24.9471 76.7424 26.9634C77.1079 28.3547 77.649 29.4194 78.3659 30.1574C79.3326 31.1389 80.6703 31.6312 82.3788 31.6343C83.2804 31.6507 84.1786 31.5186 85.0377 31.2433C85.7967 30.9826 86.3027 30.6364 86.5557 30.2045C86.5792 30.4401 86.5979 30.6756 86.612 30.8617C86.626 31.0478 86.6307 31.241 86.6307 31.4058C86.6307 32.6888 86.3433 33.6648 85.7686 34.3337C85.1923 35.0003 84.2998 35.3372 83.084 35.3372C82.198 35.3273 81.3149 35.2342 80.4461 35.0592C79.634 34.9205 78.8386 34.6963 78.073 34.3903L77.3304 37.7586C78.3022 38.2 79.3254 38.5165 80.3759 38.7008C81.4644 38.905 82.5693 39.0083 83.6766 39.0094C86.2926 39.0094 88.3674 38.3475 89.901 37.0237C91.4347 35.6999 92.1999 33.8383 92.1968 31.4388V7.53757H86.1739V8.12645C85.6721 7.80836 85.1245 7.57 84.5504 7.4198C83.9327 7.27254 83.2994 7.20213 82.6646 7.21016C81.2966 7.17737 79.9674 7.66918 78.9469 8.58577C77.9286 9.50284 77.1985 10.7685 76.7565 12.3828C76.6745 12.6631 76.5995 13.0047 76.5222 13.3863C77.7847 15.4936 78.4506 17.9078 78.4479 20.368H78.4432ZM86.1786 27.6276C85.9476 27.8195 85.6842 27.9679 85.4008 28.0657C85.068 28.1646 84.7217 28.2099 84.3748 28.2C84.1385 28.2149 83.9019 28.1782 83.6811 28.0924C83.4603 28.0066 83.2606 27.8738 83.0957 27.703C82.7989 27.3717 82.6123 26.8315 82.5358 26.0824C82.4593 25.2972 82.3952 24.3181 82.3437 23.1451C82.2968 21.9674 82.2687 20.7284 82.2687 19.4046C82.2687 18.5637 82.2898 17.6026 82.3343 16.5144C82.3788 15.4261 82.4468 14.4133 82.5358 13.4711C82.6248 12.5289 82.8286 11.9353 83.1425 11.6102C83.4564 11.2852 83.9531 11.1226 84.6231 11.1226C84.9009 11.1284 85.1773 11.164 85.4477 11.2286C85.7022 11.2788 85.9483 11.3653 86.1786 11.4854V27.6276Z" fill="#333333"/>
<path d="M58.4722 20.3492C58.4718 21.2296 58.6488 22.101 58.9927 22.9106C59.3366 23.7203 59.8401 24.4516 60.4728 25.0602L61.698 23.7293L61.7144 23.7434C60.8574 22.9519 60.324 21.868 60.2181 20.7028C60.1122 19.5376 60.4413 18.3745 61.1414 17.4399C61.8415 16.5053 62.8624 15.866 64.0054 15.6466C65.1484 15.4272 66.3317 15.6434 67.325 16.253L68.1941 14.6583C67.205 14.0918 66.0853 13.7962 64.947 13.8012C63.8087 13.8062 62.6917 14.1115 61.7075 14.6866C60.7233 15.2618 59.9066 16.0866 59.3388 17.0786C58.7711 18.0707 58.4722 19.1952 58.4722 20.3397V20.3492Z" fill="#333333"/>
<path d="M69.6748 20.3491C69.6781 21.1633 69.4714 21.9644 69.075 22.6744C68.6786 23.3843 68.106 23.9789 67.413 24.4C66.7199 24.8211 65.9302 25.0545 65.1208 25.0773C64.3113 25.1001 63.5098 24.9116 62.7945 24.5301L61.9089 26.1154C63.2802 26.8558 64.8702 27.0769 66.3899 26.7385C67.9096 26.4001 69.2581 25.5247 70.1903 24.2714C71.1225 23.0181 71.5766 21.4701 71.4699 19.9088C71.3633 18.3474 70.7031 16.8763 69.6092 15.7629L68.377 17.0962C69.2096 17.9723 69.6744 19.1373 69.6748 20.3491Z" fill="#333333"/>
<path d="M56.4085 20.3492C56.4079 21.5159 56.6439 22.6705 57.1018 23.7425C57.5598 24.8144 58.2301 25.7814 59.072 26.5842L60.3136 25.2345C59.1298 24.091 58.4021 22.5521 58.2672 20.9071C58.1324 19.262 58.5998 17.6241 59.5815 16.3011C60.5632 14.9782 61.9916 14.0613 63.5983 13.7228C65.205 13.3842 66.8794 13.6474 68.3067 14.4628L69.1852 12.8493C67.8822 12.1077 66.4086 11.7227 64.9114 11.7327C63.4142 11.7428 61.9458 12.1475 60.6528 12.9065C59.3598 13.6655 58.2874 14.7522 57.5426 16.0582C56.7978 17.3642 56.4068 18.8438 56.4085 20.3492Z" fill="#333333"/>
<path d="M71.7153 20.3491C71.7161 21.5205 71.4147 22.6722 70.8405 23.6914C70.2663 24.7107 69.439 25.5628 68.4393 26.1645C67.4397 26.7661 66.3019 27.0968 65.1372 27.1241C63.9725 27.1514 62.8207 26.8744 61.7942 26.3203L60.9087 27.9244C62.7202 28.9121 64.8252 29.21 66.8375 28.7634C68.8498 28.3168 70.6344 27.1556 71.8641 25.4929C73.0938 23.8302 73.686 21.7774 73.5322 19.7112C73.3783 17.6449 72.4887 15.7037 71.0265 14.2437L69.7803 15.591C71.0241 16.8584 71.7196 18.5685 71.7153 20.3491Z" fill="#333333"/>
<path d="M73.793 20.3492C73.7922 21.8824 73.3952 23.3891 72.641 24.7216C71.8867 26.0542 70.8011 27.1668 69.4905 27.9505C68.1799 28.7342 66.6893 29.162 65.1647 29.1922C63.6402 29.2223 62.134 28.8536 60.7938 28.1223L59.8918 29.7382C62.1444 30.9582 64.7587 31.3212 67.2558 30.7607C69.7528 30.2002 71.9654 28.7538 73.4882 26.6865C75.0109 24.6192 75.7418 22.0694 75.547 19.5043C75.3522 16.9392 74.2446 14.5306 72.4273 12.7197L71.174 14.0741C72.0019 14.8937 72.6598 15.8704 73.1094 16.9476C73.559 18.0248 73.7913 19.181 73.793 20.3492Z" fill="#333333"/>
<path d="M54.3306 20.3492C54.3293 21.805 54.6245 23.2457 55.1978 24.5825C55.7711 25.9193 56.6104 27.124 57.6641 28.1224L58.9128 26.7632C57.3563 25.2769 56.3941 23.2695 56.2073 21.1193C56.0206 18.9692 56.6222 16.8245 57.8989 15.0894C59.1756 13.3542 61.0392 12.1484 63.1387 11.6989C65.2382 11.2494 67.4288 11.5874 69.2977 12.6491L70.1832 11.0261C68.5639 10.1105 66.7344 9.63712 64.8767 9.65323C63.019 9.66934 61.1979 10.1743 59.5946 11.118C57.9913 12.0616 56.6617 13.411 55.7382 15.0318C54.8146 16.6526 54.3293 18.4883 54.3306 20.3563V20.3492Z" fill="#333333"/>
<path d="M73.8095 11.2192L72.5866 12.5407C74.4638 14.3877 75.6127 16.8555 75.821 19.4881C76.0294 22.1207 75.2831 24.7401 73.7201 26.8625C72.1571 28.9848 69.883 30.4667 67.3179 31.0343C64.7528 31.6018 62.07 31.2167 59.7653 29.9502L58.8611 31.5637C61.5547 33.0461 64.6914 33.4968 67.6902 32.8322C70.689 32.1677 73.3466 30.4329 75.1709 27.9492C76.9952 25.4655 77.8625 22.4013 77.6122 19.3239C77.3618 16.2466 76.0109 13.3648 73.8095 11.2122V11.2192Z" fill="#333333"/>
<path d="M54.0961 20.3492C54.0948 18.4403 54.5906 16.5643 55.5342 14.9079C56.4778 13.2515 57.8364 11.8724 59.4747 10.9078C61.113 9.94324 62.9739 9.42685 64.8723 9.41001C66.7708 9.39316 68.6405 9.87645 70.2955 10.8118L71.1575 9.22653C69.3241 8.19124 67.2629 7.63182 65.1604 7.59888H64.9542C61.6062 7.60304 58.3948 8.93447 56.0169 11.3043C53.639 13.6741 52.2864 16.8911 52.2524 20.2573V20.3798C52.2535 22.1194 52.6087 23.8404 53.296 25.4369C53.9833 27.0333 54.9882 28.4715 56.249 29.6628L57.5046 28.299C56.427 27.2779 55.5687 26.0458 54.9825 24.6786C54.3963 23.3114 54.0946 21.838 54.0961 20.3492Z" fill="#333333"/>
<path d="M103.577 5.18206C103.661 4.99318 103.783 4.82333 103.934 4.68269C104.084 4.5449 104.259 4.437 104.449 4.3647C104.845 4.21714 105.28 4.21714 105.676 4.3647C105.867 4.43699 106.043 4.54488 106.194 4.68269C106.344 4.824 106.465 4.99369 106.55 5.18206C106.64 5.37784 106.688 5.59009 106.692 5.80551C106.696 6.02093 106.656 6.23487 106.574 6.43391C106.492 6.63295 106.37 6.8128 106.215 6.96219C106.061 7.11157 105.877 7.22726 105.676 7.30201C105.28 7.44957 104.845 7.44957 104.449 7.30201C104.258 7.23154 104.083 7.12344 103.934 6.98401C103.782 6.84381 103.661 6.67385 103.577 6.48465C103.489 6.27772 103.444 6.05494 103.444 5.82982C103.444 5.6047 103.489 5.38192 103.577 5.17499V5.18206ZM103.966 6.3339C104.026 6.48091 104.112 6.6158 104.219 6.73198C104.329 6.84468 104.46 6.93403 104.605 6.99472C104.75 7.05542 104.906 7.08622 105.063 7.0853C105.224 7.08764 105.383 7.05552 105.531 6.99108C105.673 6.93181 105.802 6.84359 105.908 6.73198C106.079 6.54811 106.193 6.3192 106.238 6.07218C106.283 5.82515 106.258 5.57028 106.164 5.33752C106.102 5.19132 106.013 5.05852 105.901 4.94651C105.794 4.8356 105.666 4.74749 105.524 4.6874C105.376 4.62477 105.216 4.5935 105.056 4.59554C104.899 4.59336 104.743 4.62336 104.598 4.6837C104.453 4.74404 104.322 4.83346 104.212 4.94651C104.104 5.06054 104.018 5.19398 103.959 5.33988C103.838 5.66071 103.838 6.01542 103.959 6.33625L103.966 6.3339ZM105.1 4.94415C105.279 4.93333 105.457 4.9742 105.613 5.06193C105.676 5.10854 105.725 5.17053 105.757 5.2419C105.788 5.31328 105.801 5.39164 105.794 5.46943C105.795 5.5411 105.782 5.61234 105.756 5.67907C105.735 5.73412 105.701 5.78337 105.658 5.82275C105.614 5.85918 105.564 5.88785 105.51 5.90755C105.451 5.92644 105.391 5.93907 105.33 5.94524L105.798 6.7202H105.433L105.002 5.96173H104.782V6.7202H104.435V4.94651L105.1 4.94415ZM105.1 5.68613C105.185 5.68895 105.269 5.67453 105.348 5.64373C105.412 5.61547 105.445 5.54716 105.445 5.44116C105.447 5.4001 105.435 5.35952 105.412 5.32574C105.388 5.29723 105.359 5.27464 105.325 5.25979C105.287 5.24406 105.247 5.23375 105.206 5.22917C105.164 5.22575 105.123 5.22575 105.081 5.22917H104.786V5.70027L105.1 5.68613Z" fill="#333333"/>
</g>
<defs>
<clipPath id="clip0_7_2261">
<rect width="107" height="39" fill="white"/>
</clipPath>
</defs>
</svg>
