<svg width="153" height="54" viewBox="0 0 153 54" fill="none" xmlns="http://www.w3.org/2000/svg">
<path d="M41.0682 16.0821L38.57 9.8029L31.0408 1.01892L16.0851 4.75897L4.85975 9.76858L7.32384 23.4592L0 33.4099L9.85638 47.1348L22.4848 50.9778L23.7512 39.689L31.1434 29.8414L39.7677 23.6651L38.6041 18.6212L41.0682 16.0821ZM29.6034 15.9105H17.2487V22.4298H28.3714V27.062H17.2487V36.9783H12.5942V11.244H29.5691V15.9105H29.6034Z" fill="url(#paint0_linear_8_2287)"/>
<path d="M50.0005 31.6255V16.2192H61.0547V17.8319H51.7459V23.3219H60.5414V24.9003H51.7459V31.6255H50.0005Z" fill="black"/>
<path d="M63.4506 31.6255V16.2192H65.196V30.0129H73.8546V31.6255H63.4506Z" fill="black"/>
<path d="M81.3836 31.9C79.4329 31.9 77.8928 31.3167 76.7292 30.1501C75.5657 28.9835 74.9839 27.3365 74.9839 25.2091V16.2192H76.7292V25.0719C76.7292 26.7189 77.14 28.0227 77.9613 28.9148C78.7826 29.807 79.9463 30.253 81.4179 30.253C82.8553 30.253 84.0189 29.807 84.806 28.9492C85.6273 28.0914 86.0381 26.8218 86.0381 25.1748V16.2192H87.7834V25.0375C87.7834 27.2335 87.2017 28.9148 86.0381 30.1158C84.9086 31.2824 83.3686 31.9 81.3836 31.9Z" fill="black"/>
<path d="M90.8635 31.6255V16.2192H92.6089V31.6255H90.8635Z" fill="black"/>
<path d="M95.7577 31.6255V16.2192H101.096C103.492 16.2192 105.443 16.9398 106.983 18.4152C108.523 19.8907 109.275 21.7092 109.275 23.9053V23.9395C109.275 26.1356 108.523 27.9884 106.983 29.4295C105.443 30.905 103.492 31.6255 101.096 31.6255H95.7577ZM97.4689 30.0471H101.062C102.979 30.0471 104.519 29.4638 105.683 28.3315C106.846 27.1992 107.428 25.7237 107.428 24.0082V23.9738C107.428 22.2239 106.846 20.7828 105.683 19.6161C104.519 18.4495 102.979 17.8662 101.062 17.8662H97.4689V30.0471Z" fill="black"/>
<path d="M111.774 31.6255V16.2192H113.52V31.6255H111.774Z" fill="black"/>
<path d="M123.855 31.9001C121.493 31.9001 119.612 31.1452 118.174 29.6355C116.737 28.1257 116.018 26.2385 116.018 23.9739V23.9396C116.018 21.7779 116.737 19.8907 118.208 18.3124C119.645 16.734 121.493 15.9448 123.753 15.9448C124.985 15.9448 126.046 16.1164 126.935 16.4595C127.825 16.8026 128.68 17.3173 129.502 18.0035L128.372 19.3417C127.038 18.1751 125.463 17.5918 123.684 17.5918C122.007 17.5918 120.638 18.2095 119.508 19.4446C118.379 20.6799 117.831 22.1553 117.831 23.9052V23.9396C117.831 25.7925 118.379 27.3365 119.475 28.5374C120.569 29.7384 122.041 30.356 123.889 30.356C125.601 30.356 127.072 29.8414 128.339 28.812V24.9689H125.122V23.3906H130.049V29.5325C128.27 31.1109 126.217 31.9001 123.855 31.9001Z" fill="black"/>
<path d="M132.753 31.6255V16.2192H134.498L140.112 24.6258L145.724 16.2192H147.47V31.6255H145.724V19.1701L140.112 27.4394H140.008L134.396 19.2044V31.6599H132.753V31.6255Z" fill="black"/>
<path d="M150.618 19.0672C149.865 19.0672 149.214 18.4495 149.214 17.6947C149.214 16.9398 149.831 16.3221 150.618 16.3221C151.405 16.3221 152.021 16.9398 152.021 17.6947C151.987 18.4495 151.371 19.0672 150.618 19.0672ZM150.618 16.4937C149.933 16.4937 149.42 17.0085 149.42 17.6947C149.42 18.3466 149.967 18.8956 150.618 18.8956C151.268 18.8956 151.815 18.3466 151.815 17.6947C151.815 17.0427 151.268 16.4937 150.618 16.4937ZM150.995 18.4839L150.583 17.8662H150.31V18.4839H150.104V16.9054H150.755C151.028 16.9054 151.268 17.077 151.268 17.3858C151.268 17.729 150.96 17.8662 150.857 17.8662L151.268 18.4839H150.995ZM150.72 17.077H150.275V17.6603H150.72C150.857 17.6603 150.995 17.5231 150.995 17.3858C151.028 17.2143 150.857 17.077 150.72 17.077Z" fill="black"/>
<path opacity="0.22" d="M31.0407 1.01892L29.6033 11.244H21.0817L16.0851 4.75897L31.0407 1.01892Z" fill="white"/>
<path opacity="0.22" d="M41.0681 16.082L29.6033 15.9105L38.5356 9.80286L41.0681 16.082Z" fill="white"/>
<path opacity="0.22" d="M39.7335 23.6307L28.3714 22.3954H17.2487L38.57 18.5868L39.7335 23.6307Z" fill="white"/>
<path opacity="0.22" d="M23.717 39.6546L17.2145 27.0619H28.3713L31.1092 29.8069L23.717 39.6546Z" fill="white"/>
<path opacity="0.22" d="M22.4506 50.9434L9.85632 47.1347L12.5942 36.9783H17.2486L22.4506 50.9434Z" fill="white"/>
<path opacity="0.22" d="M12.5942 28.4001L0 33.4097L7.32384 23.4592L12.5942 19.822V28.4001Z" fill="white"/>
<path opacity="0.15" d="M12.5942 19.8221L7.32372 23.4592L4.85962 9.76855L12.5942 11.2439V19.8221Z" fill="white"/>
<defs>
<linearGradient id="paint0_linear_8_2287" x1="4.80701" y1="41.891" x2="32.1216" y2="6.52399" gradientUnits="userSpaceOnUse">
<stop stop-color="#54297B"/>
<stop offset="0.5" stop-color="#9C2584"/>
<stop offset="1" stop-color="#E20C7C"/>
</linearGradient>
</defs>
</svg>
