<svg width="116" height="41" viewBox="0 0 116 41" fill="none" xmlns="http://www.w3.org/2000/svg">
<path fill-rule="evenodd" clip-rule="evenodd" d="M34.2216 18.1344C33.47 17.4074 31.1071 17.6917 26.5513 17.9518C27.4507 14.0878 28.0927 10.7149 29.7723 8.08667C37.5745 8.5309 47.1627 9.6439 58.1446 9.61159C79.7635 9.54859 79.959 1.36505 79.959 1.36505C70.76 4.05951 58.1255 3.26313 48.5706 2.3682C36.5734 1.24713 24.5745 -1.56041 14.6621 1.13405C2.95562 4.31636 1.82899 13.1525 2.2469 16.9438C6.94411 10.6777 13.2971 8.44851 21.4362 7.98005C22.2069 7.93643 23.0189 7.92028 23.8483 7.91382C22.3705 9.48882 21.2232 11.97 20.0346 15.8389C19.7772 16.687 19.5245 17.4979 19.2751 18.2927C9.26411 19.1763 7.32071 23.8254 7.89595 25.045C8.50773 26.3437 12.0592 24.6411 16.4927 24.1404C16.7755 24.108 17.0488 24.0822 17.319 24.0531C15.5869 28.6037 13.6737 31.8538 10.5941 33.7535C5.89852 36.6483 0.985206 35.3091 0 34.5047C0.38137 39.8161 8.23759 42.7108 14.9147 38.9954C20.238 36.036 23.3176 28.9704 25.0052 23.6751C26.4734 23.6704 27.9412 23.6235 29.4068 23.5346C33.435 23.26 35.2036 19.0858 34.2216 18.136V18.1344ZM115.008 12.1849C114.809 12.1201 114.6 12.096 114.391 12.114C114.183 12.132 113.98 12.1918 113.795 12.2898C113.61 12.3879 113.445 12.5224 113.311 12.6854C113.177 12.8484 113.076 13.0368 113.014 13.2397C112.889 13.6436 112.925 14.0636 113.084 14.419C111.57 15.8276 110.17 16.8711 109.432 16.6288C108.479 16.3154 109.201 13.6807 110.132 11.2787C110.54 11.342 110.957 11.2542 111.308 11.0313C111.658 10.8084 111.918 10.4651 112.04 10.0639C112.181 9.61679 112.142 9.13135 111.933 8.71303C111.723 8.29472 111.36 7.97733 110.921 7.82982C110.705 7.75923 110.476 7.73298 110.249 7.75258C110.023 7.77219 109.802 7.83725 109.6 7.94403C109.398 8.05081 109.219 8.19719 109.073 8.37471C108.927 8.55224 108.817 8.7574 108.749 8.97836C108.543 9.64067 108.735 10.3353 109.186 10.7908C107.947 13.1008 106.655 15.099 105.523 14.763L105.482 14.7517C104.344 14.377 104.419 11.9684 104.716 9.33213C105.352 9.24005 105.914 8.78451 106.123 8.11413C106.264 7.66724 106.225 7.18179 106.016 6.76339C105.807 6.345 105.444 6.02753 105.005 5.88005C104.789 5.80922 104.56 5.78277 104.333 5.80226C104.106 5.82174 103.885 5.88675 103.683 5.99355C103.481 6.10035 103.302 6.2468 103.155 6.42446C103.009 6.60211 102.899 6.80745 102.832 7.02859C102.571 7.86374 102.943 8.7522 103.674 9.14474C103.075 11.6567 102.171 14.23 101.217 13.9166C100.485 13.6743 99.9364 12.0007 99.501 9.9589C99.7732 9.80381 99.9952 9.57155 100.14 9.29043C100.284 9.00931 100.346 8.69148 100.316 8.3757C100.286 8.05992 100.166 7.75983 99.971 7.51203C99.7761 7.26423 99.5145 7.07941 99.2181 6.98013C99.019 6.91534 98.8092 6.89131 98.6009 6.90943C98.3925 6.92755 98.1898 6.98745 98.0044 7.08569C97.8189 7.18392 97.6545 7.31853 97.5205 7.48174C97.3866 7.64496 97.2857 7.83354 97.2239 8.03659C97.1553 8.25522 97.1328 8.48608 97.1578 8.71415C97.1828 8.94222 97.2547 9.16238 97.369 9.36031C97.4832 9.55825 97.6371 9.72952 97.8207 9.86299C98.0044 9.99646 98.2136 10.0891 98.4347 10.135L98.716 16.981L109.738 20.6204L113.841 15.2089C114.045 15.3086 114.269 15.3623 114.496 15.3664C114.723 15.3705 114.948 15.3248 115.156 15.2325C115.364 15.1403 115.55 15.0036 115.701 14.8317C115.853 14.6598 115.966 14.4568 116.033 14.2364C116.302 13.3787 115.843 12.4595 115.008 12.1849" fill="#017CED"/>
<path fill-rule="evenodd" clip-rule="evenodd" d="M102.342 31.2658C100.297 34.9586 97.3749 36.8389 95.8176 35.469C94.2604 34.0992 94.6576 29.9945 96.7027 26.3017C98.7478 22.6106 101.668 20.7287 103.226 22.1001C104.783 23.47 104.387 27.5747 102.342 31.2658ZM99.5662 18.577C99.5662 18.577 96.9459 19.5785 95.1232 21.3328C94.5035 21.9305 93.906 22.5492 93.3642 23.2357H93.3626L93.353 23.2519C92.8493 23.8916 92.4552 24.5765 92.0341 25.3099C91.4462 26.3243 90.9329 27.3937 90.5277 28.5132V28.5083C90.5277 28.5083 89.4726 30.7731 88.7003 31.9039C87.9503 33.0023 86.5265 34.0523 85.9576 34.4497C85.2922 34.7652 84.6043 35.0293 83.8998 35.2397C79.2201 36.6273 78.3604 33.2043 79.4076 31.5889C79.7842 31.009 82.3744 28.9849 84.1445 27.4874C87.5689 24.5959 89.9159 22.7608 91.5272 21.097C93.2339 19.3362 92.1311 18.3637 90.8058 18.1311C87.5006 17.5512 85.9878 18.4493 85.0249 19.2893C83.8649 20.3022 76.9446 28.7846 76.9446 28.7846C76.9446 28.7846 88.2077 6.62958 90.0558 2.8205C91.5813 -0.31819 84.2621 -0.752728 82.2409 3.76227C81.065 6.38889 72.9927 25.402 72.0075 27.754C70.2055 32.0541 70.0974 32.7261 69.1964 33.4789C69.1874 33.4903 69.1789 33.5021 69.171 33.5144L69.1011 33.5597C69.0979 33.5597 69.0963 33.5629 69.0932 33.5661C68.2255 34.2947 67.0115 34.9521 66.2011 34.9392C65.7133 34.9343 65.4256 34.6371 65.343 34.0281C65.2588 33.4207 65.3303 32.6453 65.5575 31.702C65.6926 31.1398 65.8722 30.5243 66.101 29.8556C66.3282 29.1868 66.5761 28.5116 66.8447 27.8267C67.1116 27.1417 67.3865 26.473 67.671 25.8203L68.4496 24.0176C68.6832 23.4716 68.8818 22.9999 69.0439 22.6057C69.206 22.2083 69.3061 21.9273 69.3458 21.7609C69.6159 20.6366 69.5635 19.6237 69.2807 18.984C68.9962 18.346 68.4846 18.0261 67.7425 18.0261C67.002 18.0261 66.3012 18.2377 65.6561 18.6141C64.9458 19.0277 64.299 19.48 63.6269 20.3022C63.056 21.0103 62.4976 21.7287 61.952 22.4571C61.5818 22.9514 61.1877 23.4667 60.7682 24.0079C60.3503 24.5474 59.9562 25.0579 59.5875 25.5457C59.0569 26.2457 58.5256 26.9452 57.9937 27.6441H57.5488C57.5742 27.5375 57.6473 27.3291 57.7649 27.0173C57.8857 26.7056 58.0287 26.3389 58.1971 25.9221C58.569 24.9899 58.9344 24.0551 59.2935 23.1178C59.4715 22.6542 59.6272 22.2293 59.7671 21.84C59.9037 21.4523 60.0007 21.1454 60.0531 20.916C60.2549 20.0809 60.2597 19.4121 60.069 18.9113C59.8783 18.409 59.3841 18.1586 58.5832 18.1586C57.7824 18.1586 57.0927 18.3944 56.5127 18.8645C55.9319 19.3367 55.4645 19.9372 55.1461 20.6204C54.6472 21.6888 54.1724 22.7687 53.7224 23.8593C52.6426 26.4712 51.6567 29.1221 50.7667 31.807C50.5794 32.3737 50.4008 32.9435 50.2312 33.516C49.1777 34.0604 48.086 34.524 46.9546 34.873C46.5208 35.007 45.9821 35.0991 45.6707 34.7599C45.4419 34.5127 45.4371 34.1299 45.4689 33.789C45.631 31.9895 46.3889 30.3127 47.1072 28.6634C48.3178 25.8856 49.4486 23.0726 50.4982 20.2279C50.6285 19.8725 50.7604 19.48 50.646 19.1197C50.468 18.5527 49.8038 18.346 49.2317 18.2684C47.9923 18.102 46.5621 18.228 45.7613 19.215C45.4975 19.5413 45.3275 19.9355 45.1606 20.3232L41.0482 29.8604C40.1837 31.8635 39.1143 34.0669 37.101 34.7793C36.7514 34.9037 36.3589 34.9731 36.0204 34.8197C35.5882 34.6242 35.3642 34.104 35.3658 33.6178C35.3674 33.1316 35.5501 32.668 35.7297 32.2173C37.4236 27.9753 38.6757 25.0256 40.3697 20.782C40.4491 20.5881 40.8686 19.5963 40.8813 19.131C40.8778 18.9843 40.8351 18.8413 40.7579 18.7172C40.6806 18.5932 40.5717 18.4928 40.4428 18.4267C39.3622 17.9179 38.0465 18.2248 37.0708 18.9227C35.5342 20.0211 34.6936 21.798 33.9356 23.4893C33.095 25.3648 32.2417 27.237 31.4758 29.1497C30.6002 31.3385 29.6627 33.4579 29.1844 35.776C28.9413 36.96 29.008 38.4866 29.8454 39.3363C30.3921 39.8903 31.2088 40.0503 31.9748 40.0745C35.0766 40.1747 38.0131 38.506 40.2775 36.3236C40.3569 37.4786 40.5238 38.8016 41.4645 39.4413C42.0652 39.8467 42.8374 39.8597 43.5525 39.7805C44.9906 39.6254 46.3826 39.1667 47.7269 38.6174C48.2878 38.3864 48.8408 38.1409 49.3875 37.8792C49.3938 38.1263 49.4192 38.3606 49.4621 38.5787C49.5575 39.0261 49.7545 39.3831 50.0628 39.6497C50.3679 39.9146 50.8255 40.0487 51.4341 40.0487C51.922 40.0487 52.3796 39.934 52.8055 39.7062C53.2298 39.48 53.6667 39.0536 54.1117 38.43L62.7878 26.5715H63.1438C62.7046 27.7014 62.283 28.8382 61.8789 29.9816C61.5332 30.949 61.2372 31.9341 60.9922 32.9329C60.4329 35.259 60.2867 37.0279 60.5521 38.2362C60.8174 39.4445 61.3577 40.0487 62.1729 40.0487C62.9881 40.0487 63.7937 39.9307 64.593 39.6949C65.3998 39.4554 66.1863 39.1502 66.9448 38.7822C67.4787 38.5253 68.0031 38.2346 68.5259 37.9309C68.5243 38.1312 68.4671 38.514 68.4591 38.695C68.4321 39.3492 68.5275 39.4865 68.8246 39.7676C69.1202 40.0503 69.4284 40.0761 70.0641 40.0761C70.5408 40.0761 70.7124 40.0325 71.1303 39.7223C71.5244 39.4316 72.9529 37.2605 74.0526 35.7146C74.2337 35.461 74.4323 35.1977 74.6516 34.9247C74.248 36.8421 75.1156 39.6416 77.7153 40.0777C80.2419 40.501 84.3511 39.9113 89.6537 35.7081C89.7475 36.2945 89.8921 36.8486 90.0923 37.3655C90.4769 38.3557 91.0823 39.1586 91.907 39.7724C92.7317 40.3863 93.8297 40.6948 95.1995 40.6948C96.1497 40.6948 97.0857 40.5268 98.0057 40.1908C98.942 39.8487 99.8332 39.3908 100.659 38.8274C101.523 38.238 102.321 37.5556 103.04 36.792C104.465 35.2812 105.638 33.5439 106.512 31.6487C107.275 29.8847 107.64 28.5633 108.021 26.5311C108.196 25.4488 108.292 24.4925 108.279 23.617C108.279 23.617 108.184 21.4556 107.894 21.2585C107.607 21.0614 99.5678 18.577 99.5678 18.577" fill="#017CED"/>
</svg>
