<svg width="173" height="22" viewBox="0 0 173 22" fill="none" xmlns="http://www.w3.org/2000/svg">
<path fill-rule="evenodd" clip-rule="evenodd" d="M171.619 14.217C170.768 13.3868 169.387 12.9717 167.793 12.9717H159.292C158.76 12.9717 157.698 12.7642 157.698 11.4151C157.698 10.7925 158.229 9.96226 159.292 9.96226H167.58C169.068 9.96226 169.706 10.4811 169.706 11.6226V11.8302H172.681V11.6226C172.681 8.71698 170.981 7.16038 167.793 7.0566H159.398C156.423 7.0566 154.722 8.61321 154.616 11.3113C154.616 14.1132 156.423 15.9811 159.398 15.9811H167.793C169.706 15.9811 169.918 16.9151 169.918 17.5377C169.918 18.6792 169.174 19.1981 167.793 19.1981H159.611C158.123 19.1981 157.485 18.6792 157.485 17.5377V17.3302H154.51V17.5377C154.51 20.3396 156.104 21.8962 159.292 22.1038H167.793C171.193 22.1038 173 20.5472 173 17.5377C173 15.9811 172.575 15.0472 171.619 14.217ZM38.9994 18.6792L36.5553 16.8113C40.2746 16.7075 42.6124 14.8396 42.6124 11.934C42.6124 9.0283 40.1683 7.0566 36.3428 7.0566H22.5283V9.96226H24.7598V19.0943H22.5283V22H29.8606V19.0943H27.7353V16.8113H32.1984L37.1929 20.9623C38.1493 21.6887 39.4244 22.1038 40.9122 22.1038H42.9312V19.1981H40.9122C39.8495 19.0943 39.3182 18.8868 38.9994 18.6792ZM39.637 11.934C39.637 13.8019 37.5117 13.9057 36.8741 13.9057H27.629V9.96226H36.8741C37.5117 9.96226 39.637 10.1698 39.637 11.934ZM145.796 9.96226H148.028V17.2264L136.87 7.0566H132.407V9.96226H134.638V19.0943H132.407V22H139.845V19.0943H137.614V11.934L148.771 22H151.003V9.96226H153.235V7.0566H145.796V9.96226ZM111.047 9.96226H113.279V19.0943H111.047V22H129.963V17.7453H126.987V19.0943H116.254V16.0849H124.968V13.0755H116.254V9.96226H126.987V11.4151H129.963V7.0566H111.047V9.96226ZM9.98894 16.8113H17.215C16.7899 18.783 15.5147 19.0943 12.6456 19.0943H7.65111C4.25061 19.0943 2.97543 17.8491 2.97543 14.5283C2.97543 11.2075 4.25061 9.96226 7.65111 9.96226H12.9644C14.9834 9.96226 16.1523 10.3774 16.8962 11.3113L17.0025 11.4151L19.7654 10.066L19.6591 9.85849C18.4902 7.88679 16.3649 6.95283 13.0706 6.95283H7.75737C2.4441 7.0566 0 9.4434 0 14.5283C0 19.6132 2.4441 22 7.65111 22H12.7518C18.1714 22 20.4029 20.0283 20.4029 15.0472V13.8019H9.98894V16.8113ZM120.186 2.28302C120.186 1.03774 119.123 0 117.848 0C117.423 0 116.998 0.103774 116.679 0.311321L110.728 4.56604H117.955C119.123 4.56604 120.186 3.5283 120.186 2.28302ZM101.802 7.0566H89.9005V9.96226H92.1321V19.0943H89.9005V22H101.908C107.115 22 109.56 19.6132 109.56 14.5283C109.453 9.4434 107.009 7.0566 101.802 7.0566ZM106.478 14.5283C106.478 17.8491 105.203 19.0943 101.802 19.0943H95.0012V9.96226H101.802C105.203 9.96226 106.478 11.2075 106.478 14.5283ZM58.4459 9.96226H60.465V14.5283C60.465 17.8491 59.1898 19.0943 55.7893 19.0943H53.7703C50.3698 19.0943 49.0946 17.8491 49.0946 14.5283V9.96226H51.1136V7.0566H44.3127V9.96226H46.1192V14.5283C46.1192 19.6132 48.5633 22 53.7703 22H55.7893C60.9963 22 63.4404 19.6132 63.4404 14.5283V9.96226H65.4595V7.0566H58.4459V9.96226ZM80.5491 9.96226H82.7807V17.2264L71.7291 7.0566H67.266V9.96226H69.4975V19.0943H67.266V22H74.7045V19.0943H72.473V11.934L83.5246 22H85.7561V9.96226H87.9877V7.0566H80.5491V9.96226Z" fill="#ED5032"/>
</svg>
