<svg width="77" height="72" viewBox="0 0 77 72" fill="none" xmlns="http://www.w3.org/2000/svg">
<path d="M69.4128 20.6562C69.4128 15.7308 72.9994 7.98996 72.9994 7.98996L58.4006 4.40056L49.9209 7.24239L38.9408 4.11426L29.504 7.24239L21.0244 4.39526L5.29635 8.08009C5.29635 8.08009 8.07093 15.7573 8.07093 20.6827C8.07093 25.6082 2.65082 42.4683 6.23734 48.5284C9.82386 54.5885 17.1905 57.8068 24.6001 60.4577C31.2623 62.8436 37.7041 67.0109 38.9408 67.8327C38.9623 67.8168 46.3559 63.1087 53.7547 60.4577C61.1644 57.8068 68.531 54.5885 72.1175 48.5284C75.704 42.4683 69.4128 25.5764 69.4128 20.6562Z" fill="#C4122F"/>
<path d="M53.7548 60.4578C61.1645 57.8068 68.5311 54.5885 72.1176 48.5285C75.7041 42.4684 69.4129 25.5765 69.4129 20.651C69.4129 15.7255 72.9994 7.98471 72.9994 7.98471L58.4006 4.39531L49.9209 7.23714L38.9409 4.10901V67.8327C38.9409 67.8327 46.3452 63.1087 53.7548 60.4578Z" fill="#8B0E04"/>
<path d="M47.5658 26.5254C47.5658 22.5649 47.2432 21.4515 45.9634 19.9457C44.8396 18.5991 42.3124 17.8462 40.425 17.8462C38.5377 17.8462 35.9567 18.6415 34.9135 19.9457C33.6337 21.531 33.3111 22.5278 33.3111 26.5254V36.0105C33.3111 40.0082 33.6337 41.392 34.9135 42.9348C36.0373 44.2391 38.5377 44.9919 40.425 44.9919C42.3124 44.9919 44.9256 44.2391 45.9634 42.9348C47.2485 41.3124 47.5658 39.9657 47.5658 36.0105V26.5254ZM43.5545 36.4453C43.5545 40.7345 42.2801 41.3177 40.425 41.3177C38.5699 41.3177 37.3171 40.7345 37.3171 36.4824V26.5042C37.3171 22.0718 38.5861 21.5257 40.425 21.5257C42.264 21.5257 43.5545 22.0718 43.5545 26.5042V36.4453ZM63.6541 25.6824C63.6541 20.6191 61.4871 18.2438 56.9112 18.2438H50.7867V44.6049H56.9058C61.4817 44.6049 63.6487 42.2297 63.6487 37.1239L63.6541 25.6824ZM59.6374 36.4506C59.6374 39.7749 58.8362 40.9201 56.4649 40.9201H54.798V21.9234H56.4649C58.8362 21.9234 59.6374 23.0739 59.6374 26.4353V36.4506ZM25.9391 18.2438H30.1171V44.6049H26.1058V27.8827L22.1429 38.2585H21.9278L17.9864 27.8827V44.5996H13.9751V18.2438H18.1531L22.0461 28.906L25.9391 18.2438Z" fill="white"/>
</svg>
