<svg width="135" height="36" viewBox="0 0 135 36" fill="none" xmlns="http://www.w3.org/2000/svg">
<path d="M69.5042 7.15526C67.0105 5.5079 63.6529 4.89434 59.1807 4.89434L50.7227 4.89026V32.9334L59.3578 32.9376C62.4323 32.9376 65.0749 32.5417 67.2846 31.6536C69.5042 30.7473 71.2395 29.3085 72.4164 27.2345C73.5923 25.1622 74.2077 22.4616 74.2077 19.0261C74.2077 16.0569 73.8346 13.6279 73.0602 11.6715C72.2861 9.71174 71.1033 8.2253 69.5042 7.15526ZM67.2393 23.8776C66.8222 25.2762 66.1555 26.3427 65.1193 27.0857C63.9804 27.8899 62.2613 28.3283 60.1376 28.3283H57.1104L57.1059 9.5051L59.6472 9.50786C62.1489 9.51674 64.001 9.91694 65.2476 10.8348C66.1585 11.5147 66.7928 12.4642 67.2078 13.7592C67.6222 15.0569 67.8064 16.6925 67.8064 18.7188C67.8065 20.7462 67.6557 22.4754 67.2393 23.8776Z" fill="#A02021"/>
<path d="M69.5042 7.15526C67.0105 5.5079 63.6529 4.89434 59.1807 4.89434L50.7227 4.89026V32.9334L59.3578 32.9376C62.4323 32.9376 65.0749 32.5417 67.2846 31.6536C69.5042 30.7473 71.2395 29.3085 72.4164 27.2345C73.5923 25.1622 74.2077 22.4616 74.2077 19.0261C74.2077 16.0569 73.8346 13.6279 73.0602 11.6715C72.2861 9.71174 71.1033 8.2253 69.5042 7.15526ZM67.2393 23.8776C66.8222 25.2762 66.1555 26.3427 65.1193 27.0857C63.9804 27.8899 62.2613 28.3283 60.1376 28.3283H57.1104L57.1059 9.5051L59.6472 9.50786C62.1489 9.51674 64.001 9.91694 65.2476 10.8348C66.1585 11.5147 66.7928 12.4642 67.2078 13.7592C67.6222 15.0569 67.8064 16.6925 67.8064 18.7188C67.8065 20.7462 67.6557 22.4754 67.2393 23.8776Z" fill="#A02021"/>
<path d="M78.2175 32.9334H84.6132V20.982H92.0057V16.4129H84.6132V9.50642L96.0335 9.50774V4.89026H78.2175V32.9334Z" fill="#A02021"/>
<path d="M100.081 32.9334H106.485V4.89026H100.081C100.081 4.89026 100.033 32.9334 100.081 32.9334Z" fill="#A02021"/>
<path d="M134.627 4.89026H128.198V20.982L116.298 4.89026H111.171V32.9334H117.604V16.4173L129.375 32.9334H134.627V4.89026Z" fill="#A02021"/>
<path d="M78.2175 32.9334H84.6132V20.982H92.0057V16.4129H84.6132V9.50642L96.0335 9.50774V4.89026H78.2175V32.9334Z" fill="#A02021"/>
<path d="M134.627 4.89026H128.198V20.982L116.298 4.89026H111.171V32.9334H117.604V16.4173L129.375 32.9334H134.627V4.89026Z" fill="#A02021"/>
<path d="M26.5616 34.0029C26.0239 33.7869 25.4844 33.3749 24.0374 30.9351L21.154 26.1472L17.7552 20.5041L17.467 20.0242C17.6333 19.9774 17.7966 19.9234 17.9583 19.8695C21.8598 18.5296 24.1372 14.9529 24.1372 9.84916C24.1372 7.32712 23.1188 4.9978 21.1741 3.2548C20.8906 3.0136 20.5978 2.78356 20.2844 2.57344C17.6883 0.8584 14.1921 0.21856 9.53504 0.21856L0.727831 0.2146H0.723637V0.21652H0.593983C0.0214471 0.20968 -0.0325951 0.53932 0.191962 0.83824C0.39471 1.1038 0.62394 1.45888 0.723637 2.36068V30.5166C0.62442 31.6634 0.391595 32.0286 0.191962 32.2925C-0.0349917 32.5906 0.065304 32.9319 0.63772 32.9248H7.15922V20.982H10.1232L12.2054 24.5243L14.8239 28.9806L16.0967 31.147C17.714 33.8729 19.1293 35.3839 21.9467 35.7064C22.3311 35.7568 22.741 35.7814 23.1828 35.7856C23.2173 35.7856 23.5848 35.7856 23.6189 35.7856C24.6321 35.7856 25.6213 35.3783 26.2371 35.1162C26.321 35.085 26.4022 35.0526 26.4831 35.0166C27.2222 34.6884 27.0175 34.1847 26.5616 34.0029ZM11.3023 16.4129H7.37778H7.15898V4.89232H11.3023C13.3531 4.89232 14.9169 5.1586 16.088 6.22408C16.5207 6.63448 16.8553 7.13032 17.0924 7.72888C17.3799 8.45452 17.5247 9.32764 17.5247 10.3797C17.5248 11.9102 17.3845 16.4129 11.3023 16.4129Z" fill="#A02021"/>
<path d="M34.9479 20.9863H42.3567V16.4179H34.9479V9.49389H46.3631V4.89441H28.5396V32.9372H46.3665V28.2877H34.9479V20.9863Z" fill="#A02021"/>
</svg>
