<svg width="115" height="52" viewBox="0 0 115 52" fill="none" xmlns="http://www.w3.org/2000/svg">
<g clip-path="url(#clip0_7_2242)">
<path d="M96.4004 42.5989C91.4288 41.7272 86.3922 41.3013 81.3481 41.3258H12.2226C7.90827 41.3258 3.40218 41.3258 1.19706 37.7025C-1.1998 34.0791 0.142446 30.4558 3.97742 23.307C4.26505 22.7194 16.1535 0 16.1535 0C16.8849 0.912471 17.6864 1.76389 18.5503 2.54614C19.7967 3.52543 21.0431 4.01507 24.3028 4.01507C30.1511 4.01507 68.0215 3.91714 68.405 3.91714C76.075 3.91714 83.8408 4.70057 88.8263 10.3804C91.5108 10.6742 99.8518 11.7514 106.851 15.1789C110.877 17.1375 113.562 20.0753 114.616 23.6987C114.891 24.819 115.02 25.9714 115 27.1262C115 30.5537 113.754 34.3729 111.357 38.388C106.084 46.7119 101.29 49.6497 101.098 49.7477C99.3823 51.0215 97.362 51.7995 95.2499 52C96.7364 50.2324 97.9049 48.21 98.7013 46.0264C99.5642 42.9906 96.4004 42.5989 96.4004 42.5989Z" fill="white"/>
<path d="M105.988 17.0396C98.0303 13.1225 87.8676 12.339 87.8676 12.339C83.4574 6.75712 75.9792 5.97369 68.4051 5.97369C68.4051 5.97369 30.2471 6.07162 24.3029 6.07162C17.3999 6.07162 16.7288 3.23169 16.7288 3.23169L7.42896 20.9567H31.4934C39.0675 20.9567 39.451 20.1733 44.4365 16.3541C49.8054 12.339 54.0239 10.968 59.1053 10.968C64.0907 10.968 67.4463 12.0452 73.1029 14.5914C78.6636 17.1375 81.6357 18.4106 84.9914 16.9416C84.9914 16.9416 82.4027 20.565 74.4452 17.1375C66.4876 13.808 64.3783 13.0245 59.4888 13.0245C54.7909 13.0245 49.3261 15.3748 42.519 22.3277L50.6683 28.9869C50.6683 28.9869 48.7508 32.0227 47.5045 33.8833C46.2581 35.7439 46.354 37.017 47.0251 37.9963C47.6962 38.8777 48.5591 39.2694 51.5312 39.2694H81.3481C86.5222 39.2779 91.6861 39.7365 96.7839 40.6404C104.454 42.2072 99.4684 48.7684 99.4684 48.7684C99.4684 48.7684 104.646 45.3409 109.631 37.2129C115.288 28.2035 113.85 20.8588 105.988 17.0396Z" fill="#002244"/>
<path d="M91.9902 18.4105C88.4428 17.5292 91.5108 15.4727 91.5108 15.4727C89.8158 15.8418 88.2368 16.6342 86.915 17.7792C85.5933 18.9242 84.57 20.386 83.9367 22.0339C83.8408 22.2297 83.745 22.3277 83.6491 22.5235C80.7729 28.3992 78.1842 28.1054 73.2946 28.1054H64.9536C58.1465 28.1054 54.9826 31.5329 51.7229 37.4086H55.5579C59.1052 32.0226 61.6938 30.6516 68.6927 30.2599C84.512 30.2599 97.0715 34.8625 103.783 38.3879C113.274 22.1318 99.1807 19.4877 91.9902 18.4105Z" fill="white"/>
<path d="M62.5566 37.3108C64.2823 34.5688 67.9255 33.6874 73.678 33.9812C88.0592 34.8626 96.3044 37.7026 102.632 40.1508C94.7704 35.4502 80.6768 32.0227 70.8977 32.0227C66.1998 32.0227 61.9813 32.9041 59.5845 37.3108L62.5566 37.3108Z" fill="white"/>
<path d="M77.8965 21.1526C76.0749 23.8946 73.5822 24.7759 66.5833 24.2863C58.5299 23.6987 60.6391 20.1733 61.502 18.5085C61.7896 18.0189 62.1731 17.1375 62.6525 16.3541C56.4207 15.9624 51.9146 20.8588 51.9146 20.8588C56.5165 25.5594 59.5845 26.049 63.803 26.049H71.6647C78.9511 26.049 80.6769 22.7194 81.348 21.1526C80.2055 21.3488 79.039 21.3488 77.8965 21.1526Z" fill="white"/>
<path d="M74.3492 20.3692C74.1802 20.3305 74.0184 20.2644 73.8699 20.1733C73.4817 20.5926 72.9998 20.9096 72.4655 21.0972C71.9313 21.2848 71.3604 21.3374 70.8019 21.2505C69.172 21.0547 68.3092 19.8795 68.7885 18.7044C68.8084 18.4963 68.874 18.2955 68.9803 18.1168C68.2133 17.823 67.3504 17.5293 66.5834 17.2355C64.9536 19.8795 64.0907 21.6423 69.6514 22.1319C73.1029 22.4257 74.0616 21.8381 74.8286 20.565C74.6369 20.4671 74.541 20.4671 74.3492 20.3692Z" fill="#69BE28"/>
<path d="M46.258 30.5537C43.3818 35.646 42.2313 36.8212 44.2446 39.2694H12.2226C7.42886 39.2694 4.36088 39.0735 2.82689 36.6253C1.2929 34.1771 1.58052 31.9247 5.70312 24.2863H32.9315C37.6293 24.2863 38.8757 24.58 41.3684 26.5386C43.957 28.5952 46.258 30.5537 46.258 30.5537Z" fill="#A5ACAF"/>
</g>
<defs>
<clipPath id="clip0_7_2242">
<rect width="115" height="52" fill="white"/>
</clipPath>
</defs>
</svg>
