<svg width="146" height="36" viewBox="0 0 146 36" fill="none" xmlns="http://www.w3.org/2000/svg">
<path d="M54.6283 15.068C55.5773 16.1814 57.232 16.8247 59.0083 16.8247C62.0743 16.8247 64.3373 14.5979 64.3373 11.8021C64.3373 8.56082 61.7823 7.79381 59.349 7.2C57.1347 6.60618 55.042 6.13609 55.042 3.95877C55.042 2.49897 55.991 1.50928 57.5483 1.50928C59.349 1.50928 60.736 2.44949 62.196 5.64124H63.6317V0.0742275H62.05L61.539 1.70722C60.663 0.593817 58.984 0 57.6457 0C54.6527 0 52.6817 2.27629 52.6817 4.65155C52.6817 7.94227 55.3097 8.80825 57.7917 9.50103C59.9573 10.1443 61.977 10.6639 61.977 12.6433C61.977 14.3258 60.8577 15.2907 58.984 15.2907C56.7453 15.2907 55.6503 14.2021 53.8983 10.9361H52.4627V16.7505H54.0443L54.6283 15.068ZM71.2967 16.6763C73.73 16.6763 75.4577 15.4639 76.066 13.0639H74.9223C74.241 14.5485 73.2433 15.1423 71.905 15.1423C69.788 15.1423 68.62 13.7814 68.547 11.0103H76.139C76.212 8.06598 74.752 5.07217 71.467 5.07217C68.3523 5.07217 66.065 7.62062 66.065 10.9856C66.0407 14.2021 67.9387 16.6763 71.2967 16.6763ZM71.2723 6.38351C72.9513 6.38351 73.657 7.79382 73.8273 9.87217H68.5713C68.766 7.34845 69.7637 6.38351 71.2723 6.38351ZM82.1007 16.4041C81.322 18.4825 80.7137 18.9773 79.789 19.1753C79.862 19.0268 79.9593 18.6804 79.9593 18.4082C79.9593 17.6907 79.424 16.9979 78.548 16.9979C77.6963 16.9979 77.0393 17.7649 77.0393 18.5814C77.0393 19.7443 77.9153 20.5113 79.351 20.5113C81.0057 20.5113 82.417 19.6454 83.8527 16.1814L87.673 6.87835H89.0843V5.2701H84.461V6.87835H85.994L83.293 13.9052L80.7137 6.87835H82.5873V5.2701H76.7717V6.87835H78.3047L82.1007 16.4041ZM95.6543 14.8454H94.17V10.5897C94.17 8.33814 95.703 7.00206 96.9197 7.00206C97.455 7.00206 97.82 7.15051 98.112 7.44742C98.5257 7.86804 98.696 8.56082 98.696 9.45154V14.8454H97.2117V16.4536H102.443V14.8454H100.959V10.5897C100.959 8.33814 102.516 7.00206 103.709 7.00206C104.244 7.00206 104.609 7.15051 104.901 7.44742C105.315 7.86804 105.485 8.56082 105.485 9.45154V14.8454H104.001V16.4536H109.5V14.8454H107.748V8.61031C107.748 6.40825 106.702 5.12165 104.95 5.12165C103.514 5.12165 102.224 5.93814 100.91 7.96701C100.764 5.96288 99.6937 5.12165 98.1607 5.12165C96.725 5.12165 95.3867 5.98763 94.1213 8.09072V5.2701H90.155V6.87835H91.907V14.8206H90.155V16.4289H95.6543V14.8454ZM121.277 10.8124C121.277 7.42268 119.185 5.07217 115.802 5.07217C112.517 5.07217 110.303 7.52165 110.303 10.9113C110.303 14.3258 112.371 16.6763 115.802 16.6763C119.063 16.6763 121.277 14.2268 121.277 10.8124ZM112.809 10.8619C112.809 7.79382 113.783 6.40825 115.681 6.40825C117.603 6.40825 118.771 7.79382 118.771 10.8619C118.771 13.9299 117.773 15.3402 115.9 15.3402C113.977 15.3402 112.809 13.9299 112.809 10.8619ZM130.621 13.6082V16.4289H134.588V14.8206H132.836V5.2701H128.748V6.87835H130.573V11.134C130.573 13.3856 129.064 14.7217 127.726 14.7217C127.166 14.7217 126.777 14.5484 126.485 14.2515C126.071 13.8309 125.901 13.1381 125.901 12.2722V5.2701H121.886V6.87835H123.638V13.0887C123.638 15.2907 124.733 16.5773 126.485 16.5773C128.066 16.6021 129.38 15.7113 130.621 13.6082ZM142.009 14.8454H139.917V9.4268C140.306 7.96701 141.036 6.7299 142.131 6.77938C142.107 6.92784 142.082 7.07629 142.082 7.2C142.082 8.11546 142.764 8.63505 143.591 8.63505C144.394 8.63505 145.027 7.89279 145.027 7.05155C145.027 6.01237 144.321 5.14639 143.104 5.14639C141.863 5.14639 140.428 6.01237 139.868 7.86804V5.29485H135.902V6.90309H137.654V14.8454H135.902V16.4536H141.985V14.8454H142.009ZM59.568 19.7196H52.487V21.8474H54.6527V33.6495H52.487V35.7773H59.714C66.065 35.7773 68.985 32.3876 68.985 27.6619C68.985 22.8866 65.9677 19.7196 59.568 19.7196ZM59.9087 33.699H58.546V21.7979H59.7383C63.3153 21.7979 64.7023 23.4309 64.7023 27.6866C64.7023 32.1649 63.3883 33.699 59.9087 33.699ZM82.6603 24.3711H77.5017V26.4H79.1563V30.8289C79.1563 32.4866 78.1343 33.6247 77.0393 33.6247C76.5283 33.6247 76.1633 33.4515 75.9687 33.2289C75.6037 32.833 75.4577 32.2639 75.4577 31.4969V24.3464H70.3233V26.3753H71.9537V31.9917C71.9537 34.3423 72.927 36 75.3117 36C77.3557 36 78.5723 34.6887 79.3753 32.7835V35.7773H84.2907V33.7485H82.6603V24.3711ZM98.0147 28.132C98.0147 25.7567 97.017 24.099 94.5837 24.099C92.5153 24.099 91.2987 25.4103 90.4957 27.3402V24.3464H85.556V26.3753H87.2107V33.7485H85.556V35.7773H91.98V33.7485H90.739V29.2948C90.739 27.6619 91.761 26.5237 92.9047 26.5237C93.3913 26.5237 93.7563 26.6722 93.9997 26.9196C94.3647 27.2907 94.5107 27.8845 94.5107 28.6515V33.7732H93.2453V35.8021H99.645V33.7732H98.039V28.132H98.0147ZM107.018 33.9464C105.144 33.9464 104.195 32.3876 104.195 29.9876C104.195 27.3649 105.363 25.8309 106.945 25.8309C107.87 25.8309 108.454 26.1773 108.794 26.6227C108.283 26.8206 107.797 27.3897 107.797 28.1567C107.797 29.0722 108.429 29.8887 109.597 29.8887C110.838 29.8887 111.52 29.0227 111.52 27.7856C111.52 26.0536 109.865 24.0742 106.629 24.0742C102.979 24.0742 100.448 26.5732 100.448 30.235C100.448 33.6742 102.711 36 106.507 36C109.33 36 111.009 34.2928 111.544 31.8186H109.67C109.208 33.1546 108.308 33.9464 107.018 33.9464ZM123.784 33.9711C123.394 33.9711 123.175 33.8474 123.175 33.2784V28.0825C123.175 25.7072 121.983 24.099 118.601 24.099C115.851 24.099 113.272 25.0887 113.272 27.1918C113.272 28.0825 113.88 28.899 115.097 28.899C116.07 28.899 116.8 28.2309 116.8 27.3897C116.8 26.8206 116.581 26.4247 116.216 26.1526C116.678 25.9546 117.165 25.8557 117.652 25.8557C119.039 25.8557 119.72 26.4 119.72 27.8598V28.8495C119.72 29.1464 119.598 29.1711 118.284 29.3691C115.535 29.7402 114.367 30.2103 113.637 30.9773C113.126 31.4969 112.834 32.1897 112.834 32.9567C112.834 34.8124 114.269 35.9753 116.265 35.9753C117.919 35.9753 119.258 35.2825 119.988 33.5505H120.109C120.304 35.233 121.375 35.9753 122.737 35.9753C124.343 35.9753 125.244 35.1093 125.682 33.2536L124.514 32.8577C124.319 33.699 124.051 33.9711 123.784 33.9711ZM119.744 31.4227C119.744 32.8825 118.99 33.9216 117.919 33.9216C116.873 33.9216 116.435 33.2289 116.435 32.4618C116.435 31.3732 116.97 30.8041 118.674 30.5072C119.282 30.3835 119.525 30.3588 119.744 30.3093V31.4227ZM138.968 28.132C138.968 25.7567 137.97 24.099 135.537 24.099C133.468 24.099 132.252 25.4103 131.449 27.3402V24.3464H126.533V26.3753H128.188V33.7485H126.533V35.7773H132.933V33.7485H131.692V29.2948C131.692 27.6619 132.714 26.5237 133.858 26.5237C134.344 26.5237 134.709 26.6722 134.953 26.9196C135.318 27.2907 135.464 27.8845 135.464 28.6515V33.7732H134.198V35.8021H140.598V33.7732H138.992V28.132H138.968ZM143.591 31.2C142.228 31.2 141.206 32.2144 141.206 33.6C141.206 35.0103 142.228 36 143.591 36C144.978 36 146 34.9856 146 33.6C146 32.2144 144.978 31.2 143.591 31.2ZM143.591 35.6041C142.423 35.6041 141.669 34.7876 141.669 33.6C141.669 32.4124 142.447 31.5959 143.591 31.5959C144.759 31.5959 145.538 32.4124 145.538 33.6C145.538 34.7876 144.783 35.6041 143.591 35.6041ZM144.881 34.2433C144.832 34.4165 144.783 34.466 144.735 34.466C144.662 34.466 144.637 34.4412 144.637 34.268L144.613 34.1443C144.589 33.8474 144.443 33.6742 144.005 33.6247V33.6C144.564 33.5258 144.759 33.3031 144.759 33.0062C144.759 32.6845 144.516 32.3876 143.81 32.3876H142.496V32.7093H142.812V34.466H142.496V34.7876H143.761V34.466H143.421V33.7485H143.713C143.98 33.7485 144.029 33.8474 144.029 34.0948V34.2186C144.029 34.6144 144.199 34.8371 144.589 34.8371C144.929 34.8371 145.075 34.6144 145.148 34.3175L144.881 34.2433ZM143.664 33.4515H143.372V32.6845H143.688C144.005 32.6845 144.078 32.8082 144.078 33.0557C144.078 33.3526 143.956 33.4515 143.664 33.4515ZM38.8117 14.6227H11.0717L10.3903 14.5979C8.37067 14.5979 6.716 12.9155 6.716 10.8619C6.716 8.80825 8.41933 7.10103 10.439 7.10103H47.231L48.3747 0.0989713H10.1227C4.55033 0.0989713 0 4.84948 0 10.6639C0 16.5031 4.526 21.2536 10.1227 21.2536L10.3903 21.2784H38.5197C40.5393 21.2784 42.194 22.9608 42.194 25.0144C42.194 27.068 40.4907 28.7753 38.471 28.7753H1.65467L0.511 35.7773H38.836C44.4083 35.7773 48.9587 31.0268 48.9587 25.2124C48.9343 19.3732 44.384 14.6227 38.8117 14.6227ZM8.15167 10.8124C8.15167 12.4948 9.417 13.8557 10.95 13.8557C12.264 13.8557 13.6997 12.6928 13.6997 10.8371C13.6997 9.35258 12.629 7.8433 10.8283 7.8433C9.39267 7.8433 8.15167 9.22886 8.15167 10.8124ZM14.6973 10.8124C14.6973 12.4948 15.9627 13.8557 17.4957 13.8557C18.8097 13.8557 20.2453 12.6928 20.2453 10.8371C20.2453 9.35258 19.1747 7.8433 17.374 7.8433C15.9627 7.8433 14.6973 9.22886 14.6973 10.8124ZM21.2673 10.8124C21.2673 12.4948 22.5327 13.8557 24.0657 13.8557C25.3797 13.8557 26.8153 12.6928 26.8153 10.8371C26.8153 9.35258 25.7447 7.8433 23.944 7.8433C22.5083 7.8433 21.2673 9.22886 21.2673 10.8124ZM27.813 10.8124C27.813 12.4948 29.0783 13.8557 30.6357 13.8557C31.9497 13.8557 33.3853 12.6928 33.3853 10.8371C33.3853 9.35258 32.3147 7.8433 30.514 7.8433C29.054 7.8433 27.813 9.22886 27.813 10.8124ZM34.3587 10.8124C34.3587 12.4948 35.624 13.8557 37.157 13.8557C38.471 13.8557 39.9067 12.6928 39.9067 10.8371C39.9067 9.35258 38.836 7.8433 37.0353 7.8433C35.624 7.8433 34.3587 9.22886 34.3587 10.8124ZM40.9287 10.8124C40.9287 12.4948 42.194 13.8557 43.7513 13.8557C45.0653 13.8557 46.501 12.6928 46.501 10.8371C46.501 9.35258 45.4303 7.8433 43.6297 7.8433C42.1697 7.8433 40.9287 9.22886 40.9287 10.8124ZM8.00567 25.0144C8.00567 23.5299 6.935 22.0206 5.13433 22.0206C3.723 22.0206 2.45767 23.4062 2.45767 24.9897C2.45767 26.6722 3.723 28.033 5.256 28.033C6.59433 28.0082 8.00567 26.8701 8.00567 25.0144ZM14.5757 25.0144C14.5757 23.5299 13.505 22.0206 11.7043 22.0206C10.293 22.0206 9.02767 23.4062 9.02767 24.9897C9.02767 26.6722 10.293 28.033 11.8503 28.033C13.14 28.0082 14.5757 26.8701 14.5757 25.0144ZM21.1213 25.0144C21.1213 23.5299 20.0507 22.0206 18.25 22.0206C16.8387 22.0206 15.5733 23.4062 15.5733 24.9897C15.5733 26.6722 16.8387 28.033 18.3717 28.033C19.6857 28.0082 21.1213 26.8701 21.1213 25.0144ZM27.667 25.0144C27.667 23.5299 26.5963 22.0206 24.7957 22.0206C23.3843 22.0206 22.119 23.4062 22.119 24.9897C22.119 26.6722 23.3843 28.033 24.9417 28.033C26.2557 28.0082 27.667 26.8701 27.667 25.0144ZM34.237 25.0144C34.237 23.5299 33.1663 22.0206 31.3657 22.0206C29.9543 22.0206 28.689 23.4062 28.689 24.9897C28.689 26.6722 29.9543 28.033 31.5117 28.033C32.8013 28.0082 34.237 26.8701 34.237 25.0144ZM40.7827 25.0144C40.7827 23.5299 39.712 22.0206 37.9113 22.0206C36.5 22.0206 35.2347 23.4062 35.2347 24.9897C35.2347 26.6722 36.5 28.033 38.033 28.033C39.347 28.0082 40.7827 26.8701 40.7827 25.0144Z" fill="#871510"/>
</svg>
