<svg width="16" height="17" viewBox="0 0 16 17" fill="none" xmlns="http://www.w3.org/2000/svg">
<path opacity="0.75" d="M10.5 5.65869C10.1875 5.37744 9.71875 5.37744 9.4375 5.65869L8 7.15869L6.5 5.65869C6.1875 5.37744 5.71875 5.37744 5.4375 5.65869C5.125 5.97119 5.125 6.43994 5.4375 6.72119L6.90625 8.18994L5.46875 9.65869C5.15625 9.97119 5.15625 10.4399 5.46875 10.7212C5.75 11.0337 6.21875 11.0337 6.5 10.7212L8 9.25244L9.46875 10.7212C9.75 11.0337 10.2188 11.0337 10.5 10.7212C10.8125 10.4399 10.8125 9.97119 10.5 9.65869L9.03125 8.18994L10.5 6.72119C10.8125 6.43994 10.8125 5.97119 10.5 5.65869ZM8 0.189941C3.5625 0.189941 0 3.78369 0 8.18994C0 12.6274 3.5625 16.1899 8 16.1899C12.4062 16.1899 16 12.6274 16 8.18994C16 3.78369 12.4062 0.189941 8 0.189941ZM8 14.6899C4.40625 14.6899 1.5 11.7837 1.5 8.18994C1.5 4.62744 4.40625 1.68994 8 1.68994C11.5625 1.68994 14.5 4.62744 14.5 8.18994C14.5 11.7837 11.5625 14.6899 8 14.6899Z" fill="#E5740B"/>
</svg>
