<svg width="16" height="17" viewBox="0 0 16 17" fill="none" xmlns="http://www.w3.org/2000/svg">
<path opacity="0.75" d="M10.4688 5.65869L7 9.15869L5.5 7.65869C5.1875 7.37744 4.71875 7.37744 4.4375 7.65869C4.125 7.97119 4.125 8.43994 4.4375 8.72119L6.4375 10.7212C6.59375 10.8774 6.78125 10.9399 7 10.9399C7.1875 10.9399 7.375 10.8774 7.5 10.7212L11.5 6.72119C11.8125 6.43994 11.8125 5.97119 11.5 5.68994C11.2188 5.37744 10.75 5.37744 10.4688 5.65869ZM8 0.189941C3.5625 0.189941 0 3.78369 0 8.18994C0 12.6274 3.5625 16.1899 8 16.1899C12.4062 16.1899 16 12.6274 16 8.18994C16 3.78369 12.4062 0.189941 8 0.189941ZM8 14.6899C4.40625 14.6899 1.5 11.7837 1.5 8.18994C1.5 4.62744 4.40625 1.68994 8 1.68994C11.5625 1.68994 14.5 4.62744 14.5 8.18994C14.5 11.7837 11.5625 14.6899 8 14.6899Z" fill="#E5740B"/>
</svg>
