<svg width="228" height="74" viewBox="0 0 228 74" fill="none" xmlns="http://www.w3.org/2000/svg">
<path d="M58.711 50.1786L45.0102 36.4669L58.711 22.7646V0H0V15.8045H43.3165L33.8357 25.2929L30.77 28.361L22.6707 36.4669L30.3632 44.175L33.8357 47.6503L42.9096 56.7315H0V72.536H58.711V50.1786Z" fill="#D4121F"/>
<path d="M9.12125 36.4762L17.2301 28.3608H0V44.1748H16.8043L12.7546 40.1124L9.12125 36.4762Z" fill="#D4121F"/>
<path d="M80.2651 12.8218H93.5118C96.8045 12.8218 99.293 13.6677 100.977 15.3596C101.619 15.9959 102.123 16.7567 102.46 17.5954C102.797 18.434 102.959 19.3328 102.936 20.2364V20.3121C102.952 21.0465 102.849 21.7787 102.633 22.4806C102.447 23.0857 102.173 23.66 101.819 24.1851C101.492 24.6801 101.097 25.1264 100.646 25.5108C100.2 25.8791 99.7144 26.1967 99.1984 26.4578C100.69 26.9778 102.032 27.8557 103.106 29.0145C104.123 30.2809 104.633 31.8811 104.535 33.5031V33.5788C104.565 34.7722 104.306 35.9551 103.778 37.0257C103.272 38.0117 102.527 38.8549 101.611 39.4783C100.582 40.1733 99.4335 40.674 98.2238 40.9555C96.7853 41.2946 95.3113 41.4599 93.8335 41.4479H80.2651V12.8218ZM92.206 24.4124C93.3711 24.4665 94.5299 24.2117 95.565 23.6738C95.9639 23.4413 96.2897 23.1016 96.5054 22.6932C96.7212 22.2848 96.8182 21.824 96.7856 21.3632V21.278C96.8086 20.8534 96.7234 20.4299 96.5381 20.0473C96.3527 19.6646 96.0732 19.3354 95.7258 19.0906C94.807 18.5264 93.7358 18.2617 92.6602 18.333H86.3964V24.3934L92.206 24.4124ZM93.8902 35.9841C95.0309 36.0436 96.1653 35.7811 97.1641 35.2265C97.5539 34.9752 97.8692 34.6239 98.0772 34.2092C98.2853 33.7945 98.3783 33.3316 98.3468 32.8686V32.7644C98.3617 32.324 98.2686 31.8865 98.0756 31.4903C97.8827 31.0942 97.5957 30.7513 97.2397 30.4918C96.1691 29.8417 94.9207 29.5467 93.6726 29.649H86.387V35.9841H93.8902Z" fill="#D4121F"/>
<path d="M121.746 41.9309C117.905 41.9309 114.877 40.8671 112.663 38.7397C110.449 36.6122 109.345 33.4305 109.351 29.1945V12.8218H115.653V29.0335C115.653 31.3819 116.192 33.1527 117.29 34.3364C117.875 34.9418 118.583 35.4141 119.367 35.7213C120.15 36.0285 120.991 36.1633 121.831 36.1166C122.666 36.164 123.501 36.0359 124.283 35.7407C125.066 35.4455 125.777 34.9897 126.373 34.4027C127.565 32.9588 128.151 31.1092 128.01 29.2418V12.8218H134.302V28.9956C134.34 30.9262 134.043 32.8488 133.422 34.6773C132.897 36.1919 132.04 37.57 130.915 38.7113C129.79 39.8073 128.431 40.633 126.941 41.126C125.265 41.6789 123.51 41.9508 121.746 41.9309Z" fill="#D4121F"/>
<path d="M140.982 12.8218H147.284V41.4858H140.982V12.8218Z" fill="#D4121F"/>
<path d="M154.475 12.8218H160.776V35.7947H175.045V41.4763H154.475V12.8218Z" fill="#D4121F"/>
<path d="M186.465 18.636H177.751V12.8218H201.481V18.636H192.767V41.4858H186.465V18.636Z" fill="#D4121F"/>
<path d="M80.5112 46.5044H83.4823L92.9442 60.7086L102.406 46.5044H105.377V72.5549H102.444V51.4569L92.982 65.4054H92.8306L83.3687 51.4948V72.5549H80.5302L80.5112 46.5044Z" fill="#D4121F"/>
<path d="M113.041 46.5044H115.974V72.5549H113.041V46.5044Z" fill="#D4121F"/>
<path d="M135.683 73.0001C133.793 73.0304 131.916 72.676 130.167 71.9584C128.595 71.3103 127.174 70.343 125.994 69.1176C124.838 67.8881 123.941 66.4391 123.354 64.8563C122.726 63.1854 122.406 61.4145 122.408 59.6292V59.5534C122.406 57.8052 122.727 56.0716 123.354 54.4399C123.967 52.8545 124.869 51.3968 126.013 50.1408C127.218 48.8384 128.683 47.8045 130.313 47.1062C131.943 46.4079 133.702 46.0609 135.475 46.0879C136.479 46.0827 137.482 46.1555 138.475 46.3057C139.336 46.4488 140.182 46.6739 141.001 46.978C141.767 47.2713 142.502 47.6392 143.196 48.0765C143.889 48.5225 144.553 49.0127 145.183 49.5442L143.291 51.779C142.799 51.3397 142.277 50.9347 141.729 50.5669C141.17 50.1971 140.578 49.88 139.96 49.62C139.287 49.3506 138.59 49.1445 137.878 49.0045C137.051 48.8545 136.212 48.7815 135.371 48.7867C133.997 48.7733 132.636 49.0644 131.388 49.6389C130.202 50.1912 129.14 50.9771 128.265 51.9495C127.378 52.945 126.685 54.098 126.221 55.349C125.724 56.6653 125.471 58.0611 125.474 59.4682V59.5345C125.46 61.0057 125.706 62.4676 126.202 63.8526C126.668 65.1053 127.375 66.254 128.284 67.2332C129.184 68.2248 130.288 69.0097 131.52 69.5343C132.874 70.1009 134.33 70.3814 135.797 70.3581C137.233 70.3672 138.658 70.1071 139.998 69.5911C141.19 69.1546 142.308 68.5348 143.31 67.754V61.2769H135.39V58.6349H146.129V69.0513C144.801 70.2345 143.289 71.1939 141.654 71.8921C139.763 72.6756 137.729 73.053 135.683 73.0001Z" fill="#D4121F"/>
<path d="M152.752 46.5044H155.686V58.0761H170.711V46.5044H173.644V72.5549H170.711V60.8317H155.686V72.5549H152.752V46.5044Z" fill="#D4121F"/>
<path d="M187.885 49.2411H179.151V46.5044H199.561V49.2411H190.827V72.5549H187.885V49.2411Z" fill="#D4121F"/>
<path d="M213.243 62.2426L202.428 46.5044H205.995L214.785 59.5249L223.622 46.5044H227.038L216.185 62.2048V72.5549H213.243V62.2426Z" fill="#D4121F"/>
</svg>
