<?xml version="1.0" encoding="UTF-8"?>
<svg width="20px" height="20px" viewBox="0 0 20 20" version="1.1" xmlns="http://www.w3.org/2000/svg" xmlns:xlink="http://www.w3.org/1999/xlink">
    <title>Group 3</title>
    <defs>
        <polygon id="path-1" points="3.06122449e-05 1.02040816e-05 20 1.02040816e-05 20 20 3.06122449e-05 20"></polygon>
    </defs>
    <g id="Page-1" stroke="none" stroke-width="1" fill="none" fill-rule="evenodd">
        <g id="desktop_footer_1" transform="translate(-1427.000000, -603.000000)">
            <g id="Group-3" transform="translate(1427.000000, 603.000000)">
                <mask id="mask-2" fill="white">
                    <use xlink:href="#path-1"></use>
                </mask>
                <g id="Clip-2"></g>
                <path d="M9.36747959,19.1397041 C9.54043878,18.2728673 10.1399286,17.677051 10.4011531,17.4530714 C10.528398,17.3439898 10.6142143,17.1976633 10.6495204,17.0299082 C10.7554388,16.5264388 11.3430918,16.1101122 11.5908469,15.954398 C11.7132959,15.8775612 11.8111531,15.7664388 11.8740102,15.6332755 C12.155949,15.0355204 12.5528878,14.6064388 12.6676837,14.489398 C12.708602,14.4477653 12.743602,14.4030714 12.7718673,14.3567449 C13.0868673,13.8399082 13.1613571,13.4236837 12.993398,13.1199082 C12.8271735,12.8192959 12.4337041,12.6562347 11.8556429,12.6484796 C11.6928878,12.6463367 11.5497245,12.547051 11.4911531,12.3954184 C11.3225816,11.9595 10.900949,11.7398061 10.3342143,11.7932755 C10.2489082,11.8015408 10.1649286,11.7822551 10.0911531,11.7381735 C9.00737755,11.0911327 8.15503061,10.8713367 7.55788776,11.084602 C7.12033673,11.2409286 6.93788776,11.5886837 6.86809184,11.7821531 C6.8679898,11.7822551 6.86778571,11.7824592 6.86768367,11.7827653 C6.80492857,11.7705204 6.66533673,11.7139898 6.51543878,11.5653163 C6.38686735,11.4378673 6.17656122,11.1651122 6.21258163,10.769602 C6.22523469,10.6300102 6.25890816,10.2595 5.9912551,10.1489898 C5.75880612,10.0529694 5.53043878,10.2525612 5.36533673,10.4406224 C5.2685,10.3725612 5.21115306,10.2978673 5.19452041,10.2179694 C5.16145918,10.0582755 5.28003061,9.86654082 5.35360204,9.76654082 C5.43441837,9.65654082 5.42788776,9.50807143 5.33758163,9.40562245 C5.24717347,9.30286735 5.10043878,9.27756122 4.98084694,9.34409184 C4.52176531,9.59929592 4.23982653,9.73603061 4.08472449,9.80092857 C3.8629898,9.48184694 3.63196939,9.0389898 3.77390816,8.7245 C3.94870408,8.33705102 4.62513265,8.24970408 4.70145918,8.24092857 C4.76666327,8.23368367 4.83003061,8.2089898 4.88431633,8.16990816 C5.07411224,8.03378571 5.24472449,7.98113265 5.39166327,8.01358163 C5.6129898,8.0622551 5.78819388,8.30031633 5.89635714,8.49154082 C5.98237755,8.64347959 6.15411224,8.71919388 6.32380612,8.68021429 C6.49441837,8.64092857 6.61635714,8.49684694 6.62727551,8.3217449 C6.64492857,8.0367449 6.72503061,7.55358163 7.06217347,7.51929592 C7.17380612,7.50796939 7.27564286,7.44970408 7.34166327,7.35970408 C7.4062551,7.27154082 7.43064286,7.1600102 7.40839796,7.05358163 C7.37064286,6.87154082 7.41962245,6.79072449 7.50860204,6.64409184 C7.57870408,6.52837755 7.66605102,6.3845 7.70196939,6.17939796 C7.73380612,5.99847959 7.92390816,5.72786735 8.21043878,5.45592857 C8.33860204,5.3345 8.36880612,5.14041837 8.28411224,4.98419388 C8.28339796,4.98276531 8.21227551,4.83062245 8.39676531,4.22082653 C8.50186735,3.87327551 8.38962245,3.68541837 8.27686735,3.58909184 C7.91615306,3.28062245 7.05911224,3.58878571 6.39492857,3.90715306 C5.6385,3.83572449 5.34003061,3.65235714 5.31492857,3.51582653 C5.29156122,3.38929592 5.47880612,3.15021429 5.79472449,2.99582653 C6.04319388,2.87429592 6.25737755,2.86684694 6.31329592,2.92980612 C6.51972449,3.1617449 6.74186735,3.27756122 6.97452041,3.26847959 C7.2779898,3.25919388 7.48094898,3.04143878 7.55411224,2.94827551 C7.59064286,2.9017449 7.61645918,2.84603061 7.62860204,2.78705102 C7.86115306,1.66031633 8.09554082,1.58847959 8.09696939,1.58817347 C8.11666327,1.58960204 8.17992857,1.6345 8.24452041,1.73143878 C8.23564286,2.04154082 8.27196939,2.71868367 8.73145918,2.94286735 C9.09023469,3.11796939 9.5557449,2.95654082 10.1546224,2.44960204 C11.4921735,1.31756122 11.9662551,1.31031633 12.0176837,1.3139898 C12.0191122,1.3145 12.020949,1.31511224 12.0222755,1.31552041 L12.1227857,1.08705102 C13.1623776,1.33266327 14.1299286,1.75113265 14.9935,2.31276531 C14.9593163,2.3322551 14.9263571,2.35480612 14.8965612,2.38337755 C14.7276837,2.54552041 14.6991122,2.79552041 14.8270714,2.99164286 L14.8381939,3.00847959 C14.9067653,3.11296939 14.8789082,3.25582653 14.7761531,3.32694898 C14.7377857,3.35347959 14.7025816,3.37480612 14.6726837,3.39296939 C14.5825816,3.44766327 14.4705408,3.51582653 14.4774796,3.65307143 C14.4855408,3.81317347 14.5915612,3.86378571 15.101051,4.10735714 L15.1927857,4.15123469 C15.2528878,4.1800102 15.3154388,4.22623469 15.3104388,4.26960204 C15.3027857,4.3372551 15.1443163,4.54337755 14.5123776,4.68439796 C14.4208469,4.70480612 14.3485,4.76939796 14.3142143,4.86154082 C14.2739082,4.96960204 14.2919694,5.09868367 14.3601327,5.19052041 C14.363398,5.1950102 14.3927857,5.23868367 14.3927857,5.38541837 C14.3927857,5.45031633 14.3692143,5.4745 14.3288061,5.49419388 C14.1407449,5.58603061 13.7317653,5.48082653 13.6182959,5.39215306 C13.5339082,5.32633673 13.4270714,5.32092857 13.3396224,5.37796939 C13.1120714,5.5267449 13.0754388,6.16684694 13.1628878,6.50939796 C13.2538061,6.86572449 13.4582959,6.93409184 13.5721735,6.94317347 C13.6165612,6.94664286 13.6596224,6.94919388 13.7006429,6.95133673 C13.4128878,7.17184694 12.9353367,7.63664286 12.830949,8.34796939 C12.7235,9.08031633 13.0349286,9.87388776 13.7564592,10.7066429 C13.8711531,10.8391939 14.048602,10.8977653 14.2196224,10.8591939 C14.5563571,10.7835816 15.6677857,10.586949 15.8292143,11.2289898 C15.9337041,11.644602 15.9590102,12.1040918 15.9813571,12.509398 C16.0126837,13.0777653 16.0374796,13.5266429 16.2602347,13.749602 C16.4281939,13.9174592 16.5054388,14.0718469 16.5735,14.2079694 C16.6244184,14.3099082 16.6724796,14.4060306 16.7489082,14.4825612 C16.7894184,14.5230714 16.8422755,14.5621531 16.8982959,14.6036837 C17.1300306,14.7753163 17.1837041,14.8488878 17.1377857,14.9315408 C17.1057449,14.9890918 17.0729898,15.0433776 17.0400306,15.0979694 C16.8871735,15.3511327 16.7290102,15.6128673 16.6294184,16.1739898 C16.6175816,16.2401122 16.603398,16.3023571 16.5872755,16.3609286 C14.9202347,18.0867449 12.583398,19.161949 10.0000306,19.161949 C9.78737755,19.161949 9.57656122,19.1539898 9.36747959,19.1397041 M0.838091837,10.0000102 C0.838091837,9.21766327 0.936867347,8.45807143 1.12217347,7.73266327 C1.37023469,7.83939796 1.69819388,7.99939796 1.94972449,8.19011224 C2.23554082,8.40684694 2.52227551,9.44154082 2.66778571,10.3112347 C2.68115306,10.3914388 2.71829592,10.4639898 2.77523469,10.5213367 C3.51166327,11.2633776 4.21615306,11.1836837 4.57043878,11.0702143 C4.63176531,11.0507245 4.6979898,11.0641939 4.74329592,11.1057245 C5.53564286,11.8321531 6.10339796,12.1271531 6.49237755,12.2285816 C6.02615306,12.8408265 5.8062551,13.8272551 5.89809184,14.0787857 C5.9235,14.1482755 5.96992857,14.1880714 6.01819388,14.207051 C6.09482653,14.299398 6.29666327,14.6838878 6.58370408,15.3549082 C6.59727551,15.3867449 6.60645918,15.4262347 6.61258163,15.4795 C6.64594898,15.7679694 6.87421429,16.0624592 7.29115306,16.354602 C7.40503061,16.434398 7.46758163,16.564398 7.4585,16.7022551 C7.42533673,17.2057245 7.69268367,17.9753163 7.95390816,18.5277653 C8.01686735,18.6608265 8.0979898,18.8215408 8.19064286,18.9821531 C4.00237755,18.1398061 0.838091837,14.4326633 0.838091837,10.0000102 M11.1599286,0.0665408163 C10.7774796,0.0223571429 10.3871735,1.02040816e-05 10.0000306,1.02040816e-05 C4.48594898,1.02040816e-05 3.06122449e-05,4.48592857 3.06122449e-05,10.0000102 C3.06122449e-05,15.5139898 4.48594898,20.0000102 10.0000306,20.0000102 C15.5140102,20.0000102 20.0000306,15.5139898 20.0000306,10.0000102 C20.0000306,4.91939796 16.1996224,0.648989796 11.1599286,0.0665408163" id="Fill-1" fill="#FFFFFF" mask="url(#mask-2)"></path>
            </g>
        </g>
    </g>
</svg>