<?xml version="1.0" encoding="UTF-8"?>
<svg width="19px" height="20px" viewBox="0 0 19 20" version="1.1" xmlns="http://www.w3.org/2000/svg" xmlns:xlink="http://www.w3.org/1999/xlink">
    <title>instagram_sm</title>
    <g id="Page-1" stroke="none" stroke-width="1" fill="none" fill-rule="evenodd">
        <g id="desktop_footer_1" transform="translate(-1405.000000, -537.000000)" fill="#FFFFFF">
            <g id="instagram_sm" transform="translate(1405.000000, 537.000000)">
                <path d="M9.42,0.96 C6.86,0.96 6.54,0.96 5.54,0.96 C4.75246769,1.00783563 3.97846996,1.18697047 3.25,1.49 C2.6220549,1.73024605 2.05268149,2.10187301 1.58,2.58 C1.10305965,3.05364922 0.731609565,3.62275165 0.49,4.25 C0.217872322,4.97996704 0.0724472446,5.75105814 0.06,6.53 C0,7.54 0,7.86 0,10.42 C0,12.98 0,13.3 0.06,14.3 C0.0715053679,15.0822883 0.216942219,15.8568241 0.49,16.59 C0.731609565,17.2172484 1.10305965,17.7863508 1.58,18.26 C2.05268149,18.738127 2.6220549,19.1097539 3.25,19.35 C3.98376727,19.6222293 4.75759417,19.7709122 5.54,19.79 C6.54,19.79 6.86,19.84 9.42,19.84 C11.98,19.84 12.3,19.84 13.31,19.79 C14.089056,19.7699958 14.8594444,19.6213243 15.59,19.35 C16.2190891,19.1120009 16.788915,18.7400786 17.26,18.26 C17.7433973,17.7916437 18.1158346,17.2210287 18.35,16.59 C18.6222293,15.8562327 18.7709122,15.0824058 18.79,14.3 C18.79,13.3 18.84,12.98 18.84,10.42 C18.84,7.86 18.84,7.54 18.79,6.53 C18.7699958,5.75094404 18.6213243,4.98055559 18.35,4.25 C18.1158346,3.61897133 17.7433973,3.04835633 17.26,2.58 C16.788915,2.09992136 16.2190891,1.72799906 15.59,1.49 C14.8594444,1.21867568 14.089056,1.07000423 13.31,1.05 C12.31,1.05 11.98,1.05 9.42,1.05 M9.42,2.75 C11.94,2.75 12.24,2.75 13.23,2.8 C13.8308884,2.79125169 14.4290483,2.88249643 15,3.07 C15.4073106,3.22538575 15.7758627,3.46767463 16.08,3.78 C16.3948975,4.08200567 16.637591,4.4511732 16.79,4.86 C16.9973753,5.42035371 17.1056572,6.01252036 17.11,6.61 C17.16,7.61 17.17,7.9 17.17,10.42 C17.17,12.94 17.17,13.23 17.11,14.23 C17.0957719,14.8217946 16.9807925,15.4068365 16.77,15.96 C16.457791,16.7811939 15.815831,17.4340345 15,17.76 C14.4405915,17.9719839 13.8481933,18.0836932 13.25,18.09 C12.25,18.09 11.96,18.14 9.44,18.14 C6.92,18.14 6.63,18.14 5.63,18.09 C5.03513098,18.0829372 4.44614701,17.9712334 3.89,17.76 C3.47883913,17.61122 3.10634034,17.3720006 2.8,17.06 C2.47840106,16.7537486 2.23198128,16.3772739 2.08,15.96 C1.86901516,15.4003109 1.75733937,14.8080908 1.75,14.21 C1.75,13.21 1.7,12.92 1.7,10.4 C1.7,7.88 1.7,7.59 1.75,6.59 C1.75864012,5.99853902 1.87031142,5.41311069 2.08,4.86 C2.22887788,4.45180567 2.46818592,4.08258754 2.78,3.78 C3.08844515,3.46818938 3.46012116,3.22608849 3.87,3.07 C4.42851138,2.86857756 5.01637012,2.7604656 5.61,2.75 C6.61,2.7 6.91,2.7 9.42,2.7" id="Shape"></path>
                <path d="M9.42,13.56 C7.68582589,13.56 6.28,12.1541741 6.28,10.42 C6.28,8.68582589 7.68582589,7.28 9.42,7.28 C11.1541741,7.28 12.56,8.68582589 12.56,10.42 C12.5545106,12.1518952 11.1518952,13.5545106 9.42,13.56 M9.42,5.56 C6.74694181,5.56 4.58,7.72694181 4.58,10.4 C4.58,13.0730582 6.74694181,15.24 9.42,15.24 C12.0930582,15.24 14.26,13.0730582 14.26,10.4 C14.2489865,7.73475561 12.0852671,5.57997724 9.42,5.58 M15.58,5.39 C15.58,6.01408177 15.0740818,6.52 14.45,6.52 C13.8259182,6.52 13.32,6.01408177 13.32,5.39 C13.32,4.76591823 13.8259182,4.26 14.45,4.26 C15.0740818,4.26 15.58,4.76591823 15.58,5.39" id="Shape"></path>
            </g>
        </g>
    </g>
</svg>