<svg width="272" height="30" viewBox="0 0 272 30" fill="none" xmlns="http://www.w3.org/2000/svg">
<path d="M0.148926 0.831259H13.2625C14.597 0.732746 15.9377 0.90384 17.2047 1.33435C18.4717 1.76486 19.639 2.44597 20.6373 3.33712C21.2721 3.96225 21.7715 4.71137 22.1043 5.53785C22.4372 6.36432 22.5963 7.25046 22.5718 8.1411V8.23199C22.5654 8.95559 22.4471 9.67384 22.2213 10.3613C21.8621 11.5252 21.1827 12.5645 20.2607 13.3606C19.8212 13.7321 19.3423 14.0543 18.8325 14.3214C20.3201 14.8306 21.6583 15.7004 22.7276 16.8532C23.7297 18.1038 24.2337 19.6807 24.1429 21.2806V21.3585C24.1671 22.5322 23.9088 23.6944 23.3898 24.7473C22.8922 25.7246 22.1552 26.5599 21.2475 27.1753C20.2344 27.8617 19.1031 28.3547 17.9107 28.6294C16.4899 28.9645 15.0337 29.1258 13.5741 29.1098H0.148926V0.831259ZM11.9511 12.2699C13.0859 12.3277 14.2155 12.0812 15.223 11.5558C15.618 11.3261 15.9406 10.9902 16.154 10.5862C16.3675 10.1822 16.4633 9.72642 16.4305 9.27069V9.19279C16.4518 8.77391 16.3665 8.35649 16.1825 7.97955C15.9986 7.60262 15.7221 7.27849 15.3788 7.03749C14.4714 6.48259 13.4154 6.21972 12.3536 6.28443H6.21233V12.2699H11.9511ZM13.6001 23.6567C14.727 23.7134 15.8472 23.4524 16.833 22.9036C17.2174 22.6548 17.5291 22.3088 17.7366 21.9006C17.9441 21.4924 18.04 21.0367 18.0145 20.5795V20.5016C18.0362 20.0657 17.9476 19.6314 17.7569 19.2388C17.5663 18.8462 17.2798 18.508 16.9239 18.2554C15.8681 17.6142 14.6365 17.3234 13.4053 17.4245H6.21233V23.6437L13.6001 23.6567Z" fill="white"/>
<path d="M41.1255 29.5643C39.4959 29.6561 37.8642 29.4247 36.3244 28.8832C34.7846 28.3417 33.3672 27.5009 32.1537 26.4093C29.9725 24.3059 28.8818 21.1682 28.8818 16.9961V0.831299H35.101V16.8273C34.9658 18.6993 35.5406 20.5535 36.711 22.0208C37.2882 22.6216 37.9886 23.0905 38.764 23.3953C39.5394 23.7 40.3716 23.8335 41.2034 23.7865C42.0275 23.8325 42.8521 23.7048 43.6237 23.4118C44.3953 23.1188 45.0968 22.667 45.6828 22.0857C46.8631 20.6637 47.445 18.8388 47.3058 16.9961V0.831299H53.525V16.7883C53.5658 18.6987 53.2714 20.6015 52.6551 22.4103C52.138 23.9044 51.2903 25.2625 50.1752 26.3833C49.0755 27.4656 47.7433 28.2827 46.28 28.7723C44.6171 29.3179 42.8755 29.5855 41.1255 29.5643Z" fill="white"/>
<path d="M60.1468 0.831299H66.366V29.1099H60.1338L60.1468 0.831299Z" fill="white"/>
<path d="M73.4424 0.831299H79.6746V23.5009H93.7749V29.1099H73.4424V0.831299Z" fill="white"/>
<path d="M105.045 6.57011H96.4365V0.831299H119.807V6.57011H111.264V29.1099H105.045V6.57011Z" fill="white"/>
<path d="M126.48 2.3374H129.415L138.776 16.4118L148.163 2.3374H151.111V28.0971H148.163V7.32316L138.802 21.0859H138.659L129.298 7.32316V28.0971H126.48V2.3374Z" fill="white"/>
<path d="M158.551 2.3374H161.459V28.0971H158.551V2.3374Z" fill="white"/>
<path d="M180.973 28.4866C179.105 28.5214 177.249 28.1723 175.52 27.4609C173.974 26.8161 172.578 25.8579 171.42 24.6467C170.263 23.4355 169.369 21.9976 168.795 20.4237C168.184 18.761 167.881 17.0013 167.899 15.2302V15.1523C167.894 13.4253 168.211 11.7124 168.834 10.1016C169.43 8.54219 170.31 7.10699 171.43 5.86893C172.624 4.58652 174.075 3.56996 175.688 2.88542C177.301 2.20089 179.04 1.86373 180.792 1.8959C181.779 1.89522 182.764 1.97338 183.739 2.12961C184.592 2.27476 185.431 2.49638 186.245 2.79178C187.001 3.08445 187.727 3.4497 188.413 3.88241C189.098 4.32266 189.753 4.80849 190.374 5.33659L188.504 7.53084C188.016 7.0993 187.499 6.70027 186.959 6.33634C186.41 5.97734 185.827 5.67293 185.219 5.42748C184.575 5.15461 183.905 4.94586 183.22 4.80426C182.363 4.64481 181.494 4.57088 180.623 4.58354C179.278 4.57577 177.948 4.86389 176.728 5.42748C175.554 5.96699 174.502 6.74011 173.638 7.69963C172.763 8.68762 172.076 9.82732 171.612 11.0624C171.127 12.3621 170.88 13.7389 170.885 15.1263V15.1912C170.866 16.6421 171.108 18.0846 171.599 19.4499C172.05 20.7275 172.752 21.9018 173.664 22.9036C174.559 23.8647 175.647 24.6257 176.858 25.1368C178.193 25.6944 179.63 25.9685 181.077 25.9418C182.497 25.9529 183.906 25.6975 185.232 25.1887C186.412 24.7595 187.516 24.146 188.504 23.371V16.9181H180.714V14.3213H191.334V24.5785C190.015 25.7296 188.52 26.6631 186.907 27.344C185.033 28.1437 183.01 28.5333 180.973 28.4866Z" fill="white"/>
<path d="M197.826 2.3374H200.735V13.815H215.562V2.3374H218.47V28.0971H215.562V16.4767H200.735V28.0971H197.826V2.3374Z" fill="white"/>
<path d="M232.558 5.02504H223.924V2.3374H244.088V5.02504H235.453V28.0971H232.558V5.02504Z" fill="white"/>
<path d="M257.577 17.8789L246.84 2.3374H250.358L259.006 15.1913L267.731 2.3374H271.106L260.473 17.84V28.0971H257.577V17.8789Z" fill="white"/>
</svg>
