<?xml version="1.0" encoding="UTF-8"?>
<svg width="20px" height="16px" viewBox="0 0 20 16" version="1.1" xmlns="http://www.w3.org/2000/svg" xmlns:xlink="http://www.w3.org/1999/xlink">
    <title>mailing-list</title>
    <g id="Page-1" stroke="none" stroke-width="1" fill="none" fill-rule="evenodd">
        <g id="desktop_footer_1" transform="translate(-687.000000, -875.000000)" fill="#FFFFFF">
            <g id="Group-7" transform="translate(659.000000, 855.000000)">
                <g id="mailing-list" transform="translate(28.000000, 20.000000)">
                    <polygon id="Fill-1" points="1.61115565e-12 -3.49942297e-12 9.82211844 8.57328339 19.2676926 -3.49942297e-12"></polygon>
                    <path d="M10.0248031,11.3888527 C9.85341396,11.3888527 9.68175514,11.3293408 9.54349315,11.2102718 L0.0100909675,3 C0.0067198202,3.0335991 -3.5846881e-12,3.06627676 -3.5846881e-12,3.10059503 L-3.5846881e-12,14.0779045 C-3.5846881e-12,14.6667765 0.482253853,15.1444456 1.07928403,15.1444456 L18.5847977,15.1444456 C19.1810863,15.1444456 19.6650257,14.6667765 19.6650257,14.0779045 L19.6650257,3.10059503 C19.6650257,3.071311 19.6588003,3.0441845 19.6563955,3.01537243 L10.5166759,11.2006528 C10.3769531,11.3259696 10.2007545,11.3888527 10.0248031,11.3888527" id="Fill-2"></path>
                </g>
            </g>
        </g>
    </g>
</svg>