<?xml version="1.0" encoding="UTF-8"?>
<svg width="14px" height="25px" viewBox="0 0 14 25" version="1.1" xmlns="http://www.w3.org/2000/svg" xmlns:xlink="http://www.w3.org/1999/xlink">
    <title>mobile</title>
    <g id="Page-1" stroke="none" stroke-width="1" fill="none" fill-rule="evenodd">
        <g id="desktop_footer_1" transform="translate(-1405.000000, -477.000000)" fill="#FFFFFF">
            <path d="M1417.47508,496.043993 C1417.47508,496.095853 1417.43307,496.137783 1417.38129,496.137783 L1405.78342,496.137783 C1405.73156,496.137783 1405.68954,496.095853 1405.68954,496.043993 L1405.68954,480.050996 C1405.68954,479.99922 1405.73156,479.957206 1405.78342,479.957206 L1417.38129,479.957206 C1417.43307,479.957206 1417.47508,479.99922 1417.47508,480.050996 L1417.47508,496.043993 Z M1410.02248,498.858869 C1410.02248,497.99745 1410.72088,497.299034 1411.58228,497.299034 C1412.44368,497.299034 1413.14223,497.99745 1413.14223,498.858869 C1413.14223,499.720437 1412.44368,500.418704 1411.58228,500.418704 C1410.72088,500.418704 1410.02248,499.720437 1410.02248,498.858869 Z M1407.21521,477 C1405.99187,477 1405,477.99179 1405,479.21521 L1405,499.784875 C1405,501.008295 1405.99187,502 1407.21521,502 L1415.94941,502 C1417.17283,502 1418.16462,501.008295 1418.16462,499.784875 L1418.16462,479.21521 C1418.16462,477.99179 1417.17283,477 1415.94941,477 L1407.21521,477 Z" id="mobile"></path>
        </g>
    </g>
</svg>