<?xml version="1.0" encoding="UTF-8"?>
<svg width="20px" height="19px" viewBox="0 0 20 19" version="1.1" xmlns="http://www.w3.org/2000/svg" xmlns:xlink="http://www.w3.org/1999/xlink">
    <title>pinterest_sm</title>
    <defs>
        <polygon id="path-1" points="0 0 19 0 19 18.9997625 0 18.9997625"></polygon>
    </defs>
    <g id="Page-1" stroke="none" stroke-width="1" fill="none" fill-rule="evenodd">
        <g id="desktop_footer_1" transform="translate(-1491.000000, -537.000000)">
            <g id="pinterest_sm" transform="translate(1491.600000, 537.000000)">
                <mask id="mask-2" fill="white">
                    <use xlink:href="#path-1"></use>
                </mask>
                <g id="path-1"></g>
                <path d="M6.034875,18.3456875 C5.95175,17.5951875 5.8769375,16.4409375 6.068125,15.6215625 C6.2403125,14.8805625 7.182,10.898875 7.182,10.898875 C7.182,10.898875 6.8981875,10.3300625 6.8981875,9.488125 C6.8981875,8.167625 7.664125,7.1808125 8.6176875,7.1808125 C9.4275625,7.1808125 9.8194375,7.79 9.8194375,8.519125 C9.8194375,9.3349375 9.3005,10.5533125 9.032125,11.682625 C8.8076875,12.6290625 9.5059375,13.39975 10.4393125,13.39975 C12.1279375,13.39975 13.425875,11.6196875 13.425875,9.0499375 C13.425875,6.7746875 11.791875,5.184625 9.4584375,5.184625 C6.7556875,5.184625 5.1691875,7.2116875 5.1691875,9.307625 C5.1691875,10.1234375 5.4826875,10.998625 5.87575,11.4748125 C5.954125,11.5698125 5.9648125,11.65175 5.94225,11.74675 L5.678625,12.825 C5.635875,12.998375 5.5396875,13.034 5.360375,12.9520625 C4.1740625,12.3986875 3.431875,10.6649375 3.431875,9.2708125 C3.431875,6.2735625 5.60975,3.522125 9.709,3.522125 C13.0055,3.522125 15.5669375,5.8698125 15.5669375,9.008375 C15.5669375,12.2823125 13.5030625,14.917375 10.6364375,14.917375 C9.6745625,14.917375 8.7696875,14.4174375 8.45975,13.8260625 L7.8671875,16.0846875 C7.65225,16.9111875 7.0739375,17.9455 6.6868125,18.574875 C7.57625,18.8515625 8.5203125,19 9.5,19 C14.746375,19 19,14.746375 19,9.5 C19,4.253625 14.746375,0 9.5,0 C4.253625,0 0,4.253625 0,9.5 C0,13.52325 2.50325,16.96225 6.034875,18.3456875" id="Fill-1" fill="#FFFFFF" mask="url(#mask-2)"></path>
            </g>
        </g>
    </g>
</svg>