<?xml version="1.0" encoding="UTF-8"?>
<svg width="15px" height="25px" viewBox="0 0 15 25" version="1.1" xmlns="http://www.w3.org/2000/svg" xmlns:xlink="http://www.w3.org/1999/xlink">
    <title>raf</title>
    <defs>
        <polygon id="path-1" points="0 0.861773512 15 0.861773512 15 17.8617735 0 17.8617735"></polygon>
    </defs>
    <g id="Page-1" stroke="none" stroke-width="1" fill="none" fill-rule="evenodd">
        <g id="desktop_footer_1" transform="translate(-1405.000000, -439.000000)">
            <g id="raf" transform="translate(1405.000000, 439.000000)">
                <path d="M7.93438154,4.16728012 L6.93260035,0.773514287 C8.0536445,-0.204405099 11.7404314,-0.313487633 13.209038,0.783694709 L12.1152645,3.40061601 L13.2806234,1.88774077 C15.7202856,3.37334538 12.9876023,4.72609778 11.5224046,6.98863905 C11.3028115,6.81626285 11.0128307,6.70782523 10.6432491,6.67175613 L11.3997328,4.92376381 L10.1628345,6.57971774 C9.84936043,6.57971774 8.49831245,6.37868895 7.7810303,6.93750661 C6.91532588,5.80817072 5.90313394,4.77492695 5.07985563,3.64250469 C4.72022416,3.147902 5.62729517,2.17546438 6.7588422,1.83660834 L7.93438154,4.16728012 Z" id="Fill-1" fill="#FFFFFF"></path>
                <g id="Group-5" transform="translate(0.000000, 6.138226)">
                    <mask id="mask-2" fill="white">
                        <use xlink:href="#path-1"></use>
                    </mask>
                    <g id="Clip-4"></g>
                    <path d="M9.48429228,13.518586 C9.16750189,13.94817 8.7205446,14.195989 8.14349495,14.2606961 L8.14349495,15.2673478 L7.42405544,15.2673478 L7.42405544,14.2494083 C6.94631721,14.1788949 6.55425137,13.9767841 6.24796974,13.6442839 C5.86123281,13.2227825 5.60756946,12.6508709 5.48858208,11.9261337 L6.78499671,11.6155586 C6.83981363,12.0075168 6.95097534,12.3057823 7.12004698,12.507893 C7.28759075,12.7124657 7.52400037,12.8135442 7.82622011,12.8135442 C8.15970525,12.8135442 8.41020107,12.717436 8.57930998,12.5251265 C8.69203682,12.3895344 8.74841888,12.2071656 8.74841888,11.9803891 C8.74841888,11.8275635 8.71707895,11.6993572 8.6560015,11.5982786 C8.59183104,11.5021703 8.44780153,11.4109395 8.22547811,11.3296028 C7.1842547,10.9672342 6.52507282,10.6369172 6.2464046,10.3386517 C5.85963041,9.9220277 5.66704451,9.34523871 5.66704451,8.60819185 C5.66704451,7.940172 5.83462555,7.38061654 6.16811069,6.92701709 C6.45303943,6.53951819 6.87171253,6.31757265 7.42405544,6.26113401 L7.42405544,5.24291587 L8.14349495,5.24291587 L8.14349495,6.27302561 C8.60029021,6.33322683 8.95460653,6.4965505 9.2055868,6.76183535 C9.5297184,7.10697042 9.75360696,7.61477884 9.87572461,8.28776901 L8.66382716,8.64270536 C8.61221504,8.34197798 8.51197199,8.11023116 8.36637735,7.95001973 C8.22078271,7.78976186 8.01250821,7.71093357 7.7416284,7.71093357 C7.40031759,7.71093357 7.1560823,7.784838 7.00732013,7.93524814 C6.90867948,8.04125059 6.86016036,8.17930462 6.86016036,8.34690184 C6.86016036,8.49234167 6.90241895,8.61557765 6.98853854,8.71665624 C7.10596078,8.85224833 7.50838631,9.0420494 8.19726845,9.28856781 C8.88618785,9.53503978 9.36687003,9.83576716 9.63931498,10.1932119 C9.9101948,10.5531186 10.0448335,11.0584651 10.0448335,11.7042811 C10.0448335,12.4068144 9.85850814,13.0132395 9.48429228,13.518586 M8.34208052,1.02423188 L8.70180027,3.22496732 L7.81694111,0.910843631 C7.56256972,0.844232097 7.31747734,0.841723713 7.0851296,0.926311999 L5.75376034,3.20434283 L6.70059132,0.982982899 C4.62064126,1.45990104 -0.210477352,9.06490356 0.00711341029,12.8855906 C0.0928976086,14.3925256 0.240280973,15.2528084 1.22925875,16.3447452 C3.10376646,18.4145337 11.6060537,18.2173004 13.6811221,16.6514648 C14.4798617,16.0487559 14.8354822,14.5296506 14.959724,13.5351692 C15.5023407,9.19236664 10.4188258,1.59860539 8.34208052,1.02423188" id="Fill-3" fill="#FFFFFF" mask="url(#mask-2)"></path>
                </g>
            </g>
        </g>
    </g>
</svg>