<?xml version="1.0" encoding="UTF-8"?>
<svg width="22px" height="17px" viewBox="0 0 22 17" version="1.1" xmlns="http://www.w3.org/2000/svg" xmlns:xlink="http://www.w3.org/1999/xlink">
    <title>twitter_sm</title>
    <g id="Page-1" stroke="none" stroke-width="1" fill="none" fill-rule="evenodd">
        <g id="desktop_footer_1" transform="translate(-1520.000000, -538.000000)" fill="#FFFFFF">
            <g id="twitter_sm" transform="translate(1520.800000, 538.000000)">
                <path d="M6.604416,17 C14.529228,17 18.862956,10.4602319 18.862956,4.78946539 C18.862956,4.60363327 18.859176,4.41863784 18.850692,4.23464647 C19.691868,3.62895589 20.423088,2.87316048 21,2.01260963 C20.22804,2.35415252 19.397196,2.58441367 18.52578,2.68824873 C19.415256,2.15702487 20.09826,1.31630393 20.420316,0.31426631 C19.587624,0.80583036 18.665976,1.16343797 17.684604,1.35588007 C16.898364,0.52176909 15.778644,0 14.539644,0 C12.160092,0 10.230528,1.92199451 10.230528,4.29129138 C10.230528,4.62814872 10.268412,4.95555129 10.342332,5.2698176 C6.761664,5.09051177 3.58638,3.38263001 1.461684,0.78600045 C1.091328,1.42005532 0.878136,2.15702487 0.878136,2.94302533 C0.878136,4.43194145 1.63884,5.74632096 2.795436,6.5152526 C2.088744,6.493582 1.424724,6.3001358 0.844032,5.97833919 C0.843108,5.99632834 0.843108,6.0142338 0.843108,6.0330597 C0.843108,8.111769 2.328396,9.8469273 4.299708,10.2404296 C3.937836,10.3384914 3.557064,10.3913711 3.163944,10.3913711 C2.886324,10.3913711 2.616348,10.3640109 2.354016,10.3139759 C2.902452,12.0190129 4.492908,13.2597624 6.37896,13.2947366 C4.904004,14.445875 3.046428,15.1318056 1.027824,15.1318056 C0.680148,15.1318056 0.33726,15.1119757 0,15.0723159 C1.906884,16.289554 4.170852,17 6.604416,17" id="twitter"></path>
            </g>
        </g>
    </g>
</svg>