<?xml version="1.0" encoding="UTF-8"?>
<svg width="28px" height="19px" viewBox="0 0 28 19" version="1.1" xmlns="http://www.w3.org/2000/svg" xmlns:xlink="http://www.w3.org/1999/xlink">
    <title>youtube_sm</title>
    <defs>
        <polygon id="path-1" points="0 0 27 0 27 18.9999847 0 18.9999847"></polygon>
    </defs>
    <g id="Page-1" stroke="none" stroke-width="1" fill="none" fill-rule="evenodd">
        <g id="desktop_footer_1" transform="translate(-1434.000000, -537.000000)">
            <g id="youtube_sm" transform="translate(1434.200000, 537.000000)">
                <mask id="mask-2" fill="white">
                    <use xlink:href="#path-1"></use>
                </mask>
                <g id="Clip-2"></g>
                <path d="M10.7386364,13.5097508 L10.7386364,5.49021855 L17.7954545,9.5001379 L10.7386364,13.5097508 Z M26.4357614,2.96689597 C26.1252614,1.79900887 25.2103295,0.879347581 24.0487159,0.567226613 C21.9431761,-1.53225806e-05 13.5,-1.53225806e-05 13.5,-1.53225806e-05 C13.5,-1.53225806e-05 5.05682386,-1.53225806e-05 2.95128409,0.567226613 C1.78967045,0.879347581 0.874738636,1.79900887 0.564238636,2.96689597 C0,5.08355726 0,9.49998468 0,9.49998468 C0,9.49998468 0,13.9162589 0.564238636,16.0330734 C0.874738636,17.2009605 1.78967045,18.1206218 2.95128409,18.432896 C5.05682386,18.9999847 13.5,18.9999847 13.5,18.9999847 C13.5,18.9999847 21.9431761,18.9999847 24.0487159,18.432896 C25.2103295,18.1206218 26.1252614,17.2009605 26.4357614,16.0330734 C27,13.9162589 27,9.49998468 27,9.49998468 C27,9.49998468 27,5.08355726 26.4357614,2.96689597 L26.4357614,2.96689597 Z" id="Fill-1" fill="#FFFFFF" mask="url(#mask-2)"></path>
            </g>
        </g>
    </g>
</svg>